<svg width="49" height="48" viewBox="0 0 49 48" fill="none" xmlns="http://www.w3.org/2000/svg">
<g id="Icons">
<path id="Vector" d="M34.5001 33C34.5001 30.709 32.5001 24.5 28.0001 24.5C23.5001 24.5 21.5001 30.83 21.4991 33.059C21.4991 35.288 18.1561 35.515 17.5841 39.312C17.0301 42.99 19.6461 46.421 23.3641 46.499C25.2141 46.537 26.8731 45.78 28.0001 44.5C29.1421 45.797 30.8301 46.557 32.7081 46.497C36.4891 46.375 39.0471 42.864 38.3871 39.14C37.7381 35.475 34.5001 35.249 34.5001 33Z" fill="#50ABF9"/>
<path id="Vector_2" d="M17.5 4.5C19.985 4.5 22 6.962 22 10C22 13.038 19.985 15.5 17.5 15.5C15.015 15.5 13 13.038 13 10C13 9.174 13.149 8.39 13.416 7.687" stroke="#111111" stroke-width="2" stroke-miterlimit="10" stroke-linecap="round" stroke-linejoin="round"/>
<path id="Vector_3" d="M31.5 15.5C29.015 15.5 27 13.038 27 10C27 6.962 29.015 4.5 31.5 4.5C33.985 4.5 36 6.962 36 10C36 11.054 35.757 12.039 35.337 12.876" stroke="#111111" stroke-width="2" stroke-miterlimit="10" stroke-linecap="round" stroke-linejoin="round"/>
<path id="Vector_4" d="M44.231 19.925C44.717 20.803 45 21.861 45 23C45 26.038 42.985 28.5 40.5 28.5C38.015 28.5 36 26.038 36 23C36 19.962 38.015 17.5 40.5 17.5" stroke="#111111" stroke-width="2" stroke-miterlimit="10" stroke-linecap="round" stroke-linejoin="round"/>
<path id="Vector_5" d="M4.03101 22.355C4.29201 19.621 6.19301 17.5 8.50001 17.5C10.985 17.5 13 19.962 13 23C13 26.038 10.985 28.5 8.50001 28.5C7.63001 28.5 6.81801 28.198 6.13001 27.676" stroke="#111111" stroke-width="2" stroke-miterlimit="10" stroke-linecap="round" stroke-linejoin="round"/>
<path id="Vector_6" d="M33.6959 40.191C34.7369 38.83 35.2189 37.012 34.8869 35.14C34.2379 31.475 30.9999 31.249 30.9999 29C30.9999 26.709 28.9999 20.5 24.4999 20.5C22.0549 20.5 20.3479 22.369 19.2979 24.434" stroke="#111111" stroke-width="2" stroke-miterlimit="10" stroke-linecap="round" stroke-linejoin="round"/>
<path id="Vector_7" d="M17.8541 29.812C17.2061 31.401 14.5841 31.99 14.0841 35.312C13.5301 38.99 16.1461 42.421 19.8641 42.499C21.7141 42.537 23.3731 41.78 24.5001 40.5C25.5531 41.696 27.0701 42.435 28.7721 42.496" stroke="#111111" stroke-width="2" stroke-miterlimit="10" stroke-linecap="round" stroke-linejoin="round"/>
</g>
</svg>
