<svg width="49" height="48" viewBox="0 0 49 48" fill="none" xmlns="http://www.w3.org/2000/svg">
<g id="Icons">
<path id="Vector" d="M25.5801 44.2994C34.5366 44.2994 41.7972 37.0387 41.7972 28.0823C41.7972 19.1259 34.5366 11.8652 25.5801 11.8652C16.6237 11.8652 9.36304 19.1259 9.36304 28.0823C9.36304 37.0387 16.6237 44.2994 25.5801 44.2994Z" fill="#50ABF9"/>
<path id="Vector_2" d="M24.499 40.1953C25.5488 40.4018 26.6321 40.5153 27.7424 40.5153C36.997 40.5153 44.5001 33.0122 44.5001 23.7576C44.5001 14.5031 36.997 7 27.7424 7C26.6321 7 25.5488 7.11352 24.499 7.32002" stroke="#111111" stroke-width="2" stroke-miterlimit="10" stroke-linecap="round" stroke-linejoin="round"/>
<path id="Vector_3" d="M4.5 23.5047C4.63514 14.3658 12.0853 7 21.2555 7C26.2503 7 30.7338 9.18498 33.8043 12.6511" stroke="#111111" stroke-width="2" stroke-miterlimit="10" stroke-linecap="round" stroke-linejoin="round"/>
<path id="Vector_4" d="M37.3721 19.1509C37.7894 20.6147 38.0132 22.1597 38.0132 23.7576C38.0132 33.0122 30.5101 40.5152 21.2556 40.5152C14.3903 40.5152 8.49055 36.3875 5.90015 30.479" stroke="#111111" stroke-width="2" stroke-miterlimit="10" stroke-linecap="round" stroke-linejoin="round"/>
<path id="Vector_5" d="M17.4717 27.8673C17.823 28.9398 18.8653 29.7041 20.0967 29.7041H21.9757C23.672 29.6901 25.0396 28.3657 25.0396 26.7343C25.0396 25.0942 23.6569 23.7644 21.9508 23.7644H20.5605C18.8545 23.7644 17.4717 22.4346 17.4717 20.7945V20.7912C17.4717 19.1674 18.8274 17.8451 20.5162 17.8214L21.3162 17.8105C22.5552 17.8105 23.6039 18.5987 23.9477 19.6809" stroke="#111111" stroke-width="2" stroke-miterlimit="10" stroke-linecap="round"/>
<path id="Vector_6" d="M20.7148 15.6489V16.7301" stroke="#111111" stroke-width="2" stroke-miterlimit="10" stroke-linecap="round"/>
<path id="Vector_7" d="M20.7148 31.8663V30.2446" stroke="#111111" stroke-width="2" stroke-miterlimit="10" stroke-linecap="round"/>
</g>
</svg>
