<svg width="52" height="52" viewBox="0 0 52 52" fill="none" xmlns="http://www.w3.org/2000/svg">
<g id="badge-guaranteed-premium-quality-blue">
<path id="Vector" fill-rule="evenodd" clip-rule="evenodd" d="M34.6466 0V7.6284C34.1911 7.3684 33.721 7.12712 33.2405 6.90664V0.07696H32.63V6.64248C30.5864 5.80112 28.3473 5.33728 26 5.33728C23.6527 5.33728 21.4126 5.80112 19.369 6.64248V0.07696H18.7585V6.90768C18.278 7.12712 17.809 7.3684 17.3535 7.6284V0H34.6466Z" fill="#EDF7FE"/>
<path id="Vector_2" fill-rule="evenodd" clip-rule="evenodd" d="M18.7283 40.5686C18.7387 40.5696 18.7491 40.5717 18.7595 40.5727V40.6528C18.7491 40.6247 18.7387 40.5967 18.7283 40.5686Z" fill="#EDF7FE"/>
<path id="Vector_3" fill-rule="evenodd" clip-rule="evenodd" d="M18.2114 42.927C18.3924 42.9998 18.5754 43.0705 18.7595 43.1381V43.5822C18.4694 43.4782 18.1834 43.369 17.8994 43.2525C17.7122 43.3617 17.5302 43.4605 17.3534 43.5469C15.6229 44.3976 14.3094 44.1802 12.2023 42.744C13.285 42.1793 14.1523 41.8288 15.1486 41.8839C14.7264 41.6343 14.3146 41.3691 13.9121 41.0925C11.9278 41.705 10.7463 41.3275 9.01575 39.4773C10.0048 39.2142 10.7952 39.0759 11.597 39.2465C11.3162 38.9885 11.0438 38.7244 10.7786 38.4529C8.58831 38.714 7.48071 38.1389 6.11311 35.9164C7.26023 35.8477 8.13175 35.8831 8.96375 36.3386C8.71935 36.0121 8.48327 35.6782 8.25759 35.3381C6.30863 35.1561 5.41423 34.4011 4.57183 32.1641C5.49431 32.2857 6.21607 32.4428 6.83695 32.8463C6.73087 32.6269 6.62895 32.4053 6.53015 32.1828C4.53439 31.6867 3.78351 30.8672 3.37375 28.5334C4.40959 28.8745 5.14695 29.2115 5.69503 29.9582C5.60455 29.6649 5.51927 29.3685 5.44023 29.0701C3.77727 28.3597 3.23647 27.5309 3.19799 25.4332C4.01959 25.8533 4.60407 26.234 4.98679 26.8975C4.92231 26.4857 4.87135 26.0697 4.83183 25.6495L4.81207 25.6599C3.30303 24.7229 2.90575 23.8659 3.19383 21.8587C3.99255 22.4463 4.51463 22.9393 4.73823 23.7817V23.6433C4.73719 23.2596 4.74759 22.8789 4.76839 22.5004C3.47151 21.3803 3.22191 20.4724 3.79079 18.5629C4.40959 19.1765 4.82767 19.6861 4.98679 20.3902C5.05023 19.9794 5.12511 19.5728 5.21143 19.1693C4.20991 17.9639 4.12463 17.0872 4.92231 15.4221C5.37367 16.0378 5.67631 16.5443 5.74911 17.16C5.88015 16.7533 6.02263 16.3529 6.17655 15.9588C5.46519 14.7305 5.52967 13.9069 6.49687 12.5008C6.79847 13.0832 6.99711 13.5637 7.01375 14.0847C7.16247 13.7904 7.31847 13.5002 7.48071 13.2153C6.99191 11.9548 7.18743 11.1561 8.31271 9.92679C8.51031 10.4894 8.63719 10.9553 8.61639 11.4254C8.78071 11.1925 8.95127 10.9626 9.12495 10.7359C8.89199 9.63351 9.18215 8.96583 10.2877 8.04855C10.3792 8.49471 10.4322 8.87327 10.3979 9.23103C10.529 9.09063 10.661 8.95231 10.7952 8.81503C10.6902 7.58055 11.0573 6.94407 12.3531 6.17551C12.375 6.67679 12.3646 7.08863 12.246 7.46719C12.3947 7.34135 12.5445 7.21863 12.6953 7.09695C12.7327 5.92383 13.1217 5.38823 14.3978 4.84951C14.353 5.33311 14.2875 5.71999 14.1076 6.06007C14.3062 5.92591 14.507 5.79487 14.7108 5.66799C14.8585 4.68103 15.237 4.26919 16.3665 3.94263C16.2812 4.33991 16.1886 4.65503 16.0087 4.91919L16.1418 4.84951L16.0056 4.92335C15.8402 5.16463 15.601 5.36431 15.2266 5.54631C16.0576 5.28007 16.511 5.48911 17.1465 5.93839C16.067 6.48023 15.5074 6.41575 14.6983 5.75327L14.7056 5.69919C14.4914 5.83855 14.2782 5.98103 14.0681 6.12871C13.9069 6.40327 13.6625 6.64767 13.2839 6.89103C14.223 6.46255 14.7836 6.64455 15.5927 7.08343C14.4009 7.86863 13.7353 7.87279 12.6932 7.20719V7.18015C12.5258 7.31951 12.3604 7.46199 12.1971 7.60759C12.0609 7.94975 11.8248 8.26903 11.4265 8.60807C12.403 7.99135 13.053 8.10887 14.0171 8.47183C12.8128 9.52431 12.0765 9.62935 10.8191 9.04799C10.815 9.01783 10.8118 8.98767 10.8087 8.95751C10.659 9.11663 10.5123 9.27887 10.3667 9.44319C10.2918 9.81863 10.1067 10.1837 9.75415 10.5965C10.6226 9.83423 11.2819 9.84775 12.2907 10.0557C11.2674 11.284 10.555 11.5034 9.22271 11.1259C9.20399 11.0604 9.18631 10.9959 9.17071 10.9335C8.96271 11.2174 8.76095 11.5076 8.56751 11.8029C8.49783 12.1243 8.35327 12.4592 8.11095 12.8367C8.95751 11.8581 9.69175 11.7728 10.843 11.8497C9.89455 13.3692 9.13847 13.7217 7.60135 13.5065L7.58263 13.4628C7.34551 13.9079 7.12399 14.3624 6.91807 14.8262C6.86815 15.0093 6.79535 15.2027 6.69967 15.4117C7.40271 14.3249 8.11823 14.1388 9.26951 14.0556C8.55607 15.6561 7.86967 16.1241 6.38663 16.1439C6.15367 16.7835 5.94983 17.4366 5.77927 18.1033C6.31383 17.1257 7.00647 16.8449 8.08495 16.5953C7.61175 18.3466 6.98983 18.9644 5.52031 19.24C5.40695 19.8089 5.31543 20.3871 5.24887 20.9726C5.65967 20.0533 6.31591 19.6757 7.31743 19.2701C7.11567 21.1609 6.57695 21.9232 5.13239 22.4557C5.11783 22.7697 5.11055 23.0859 5.11055 23.4031C5.11055 23.4936 5.11159 23.5841 5.11263 23.6745C5.42151 22.9372 5.97687 22.5191 6.78599 22.0438C6.86087 23.8877 6.46671 24.7249 5.20831 25.4488C5.26447 26.0416 5.34559 26.6271 5.45063 27.2053C5.60767 26.2631 6.13183 25.7025 6.95447 25.0182C7.35071 26.9557 7.06471 27.8897 5.82295 28.8725C5.93007 29.2729 6.04759 29.6701 6.17759 30.0612C6.20047 29.0149 6.67991 28.3088 7.46199 27.4217C8.23783 29.4985 8.08391 30.5833 6.87751 31.8885C7.19159 32.605 7.54415 33.3018 7.93207 33.9747C7.99863 34.0735 8.06519 34.1796 8.13071 34.2909C7.43391 32.5884 7.79791 31.6025 8.63615 30.1922C9.92367 32.3242 9.91327 33.5057 8.73183 35.2508C9.09375 35.7853 9.48063 36.3033 9.88935 36.8014C9.22895 35.4869 9.43071 34.4697 9.94135 33.046C11.6761 34.9648 11.9288 36.1847 11.1124 38.1659C11.6844 38.7514 12.2897 39.3026 12.9262 39.8164C13.0676 39.9069 13.2122 40.0077 13.3609 40.1201C11.9902 38.7348 11.9465 37.623 12.1961 35.9029C14.3333 37.4785 14.793 38.6433 14.3291 40.8564C15.1476 41.4117 16.0077 41.9109 16.9031 42.3467C16.9354 42.3602 16.9676 42.3748 17.0009 42.3893C15.2038 41.2381 14.8907 40.0587 14.7451 38.1607C15.9869 38.7077 16.8178 39.2475 17.3534 39.9183C17.9629 40.6817 18.1917 41.6156 18.2114 42.927Z" fill="#EDF7FE"/>
<path id="Vector_4" fill-rule="evenodd" clip-rule="evenodd" d="M17.4709 45.8935C17.9213 45.4681 18.3362 45.1093 18.7595 44.8243V46.2585C18.3633 46.1722 17.9369 46.0495 17.4709 45.8935Z" fill="#EDF7FE"/>
<path id="Vector_5" fill-rule="evenodd" clip-rule="evenodd" d="M32.63 40.6723V42.0378C32.1818 42.8459 31.6014 43.4408 30.6176 43.8797C31.3019 43.7205 31.9738 43.5271 32.63 43.3004V43.7382C32.2109 43.8786 31.7866 44.0055 31.356 44.1199C31.8261 44.1698 32.24 44.2915 32.63 44.4756V46.3663C30.9587 46.5909 29.848 46.0616 28.5397 44.6638C27.6806 44.7699 26.807 44.825 25.9199 44.825C25.0827 44.825 24.257 44.7751 23.4447 44.6805C22.1426 46.0668 21.035 46.5909 19.37 46.3673V44.4766C19.7298 44.3061 20.1094 44.1906 20.5338 44.1334C20.1417 44.0305 19.7527 43.9161 19.37 43.7913V43.3534C20.0814 43.5926 20.8094 43.7923 21.553 43.9525C20.4651 43.5073 19.8432 42.8917 19.37 42.0378V40.6723C21.8546 41.1299 22.853 42.0669 23.5331 44.279C24.3162 44.3705 25.1118 44.4173 25.9199 44.4173C26.7842 44.4173 27.637 44.3633 28.4742 44.2603C29.1533 42.0628 30.1527 41.1289 32.63 40.6723Z" fill="#EDF7FE"/>
<path id="Vector_6" fill-rule="evenodd" clip-rule="evenodd" d="M33.2717 40.5686C33.2613 40.5967 33.2509 40.6247 33.2405 40.6528V40.5727C33.2509 40.5727 33.2613 40.5696 33.2717 40.5686Z" fill="#EDF7FE"/>
<path id="Vector_7" fill-rule="evenodd" clip-rule="evenodd" d="M33.2405 44.8257C33.6638 45.1086 34.0777 45.4674 34.529 45.8928C34.0631 46.0488 33.6367 46.1705 33.2405 46.2568V44.8257Z" fill="#EDF7FE"/>
<path id="Vector_8" fill-rule="evenodd" clip-rule="evenodd" d="M46.4058 29.0461C46.2717 29.5568 46.1188 30.0601 45.9482 30.5552C46.5244 29.3696 47.347 28.9546 48.6262 28.5334C48.2134 30.8869 47.4542 31.6992 45.421 32.1953C45.3939 32.1682 45.3658 32.1412 45.3398 32.1141C45.2057 32.4209 45.0642 32.7246 44.9155 33.0241C45.5926 32.4865 46.3809 32.3024 47.4282 32.1641C46.5618 34.4645 45.6404 35.1977 43.5729 35.3517C43.3077 35.7521 43.0279 36.1421 42.7367 36.5217C43.6623 35.8935 44.6014 35.8394 45.8869 35.9164C44.4902 38.1867 43.3638 38.7379 41.079 38.4353C40.7888 38.7317 40.4903 39.0208 40.1835 39.3016C41.0613 39.0509 41.9058 39.1893 42.9842 39.4773C41.2214 41.3618 40.0286 41.7185 37.9787 41.0571C37.5513 41.3535 37.1134 41.6343 36.6652 41.8985C37.7416 41.7861 38.6485 42.1439 39.7977 42.744C37.6906 44.1802 36.3771 44.3976 34.6466 43.5469C34.449 43.4501 34.2451 43.3378 34.034 43.213C33.7719 43.3212 33.5078 43.4252 33.2405 43.5229V43.0778C33.4246 43.0092 33.6076 42.9364 33.7896 42.8615C33.8166 41.5844 34.0475 40.6681 34.6466 39.9173C35.1832 39.2465 36.0121 38.7088 37.2549 38.1607C37.1207 39.9079 36.8451 41.0457 35.4016 42.1137C36.1816 41.7092 36.9325 41.2568 37.6522 40.7597C37.2206 38.6089 37.699 37.4556 39.8039 35.9029C40.0338 37.4857 40.015 38.5549 38.9418 39.7945C39.6094 39.2527 40.2438 38.6703 40.8408 38.0505C40.0826 36.1369 40.3582 34.9273 42.0586 33.046C42.51 34.3054 42.7201 35.2466 42.3072 36.3553C42.615 35.958 42.9094 35.5503 43.1891 35.1312C42.0878 33.4505 42.1065 32.2753 43.3638 30.1922C44.0908 31.4153 44.461 32.319 44.0929 33.6471C44.4298 33.0387 44.7377 32.4116 45.0143 31.7678C43.9078 30.5157 43.7871 29.4351 44.538 27.4217C45.2161 28.1913 45.6674 28.8246 45.7902 29.6618C45.8817 29.3654 45.967 29.0659 46.045 28.7643C44.9155 27.82 44.6638 26.884 45.0455 25.0182C45.7475 25.6006 46.2311 26.0946 46.4558 26.8122C46.5338 26.3328 46.5951 25.8471 46.6398 25.3583C45.501 24.6542 45.1433 23.8118 45.214 22.0438C45.9004 22.4463 46.4027 22.8082 46.7282 23.3573C46.7282 23.0339 46.7199 22.7125 46.7043 22.3933C45.3814 21.8618 44.877 21.0881 44.6836 19.2701C45.5291 19.6133 46.1282 19.9357 46.5421 20.5826C46.4807 20.1188 46.4027 19.6591 46.3122 19.2057C44.9623 18.9145 44.3695 18.278 43.9161 16.5953C44.8178 16.8043 45.4501 17.0352 45.9451 17.6779C45.7995 17.1569 45.6352 16.6441 45.4511 16.1397C44.0794 16.0877 43.4179 15.5969 42.7305 14.0556C43.7164 14.1263 44.382 14.2729 44.9946 14.9947C44.7772 14.4934 44.5411 14.0015 44.2874 13.521C42.8251 13.703 42.0815 13.3317 41.157 11.8497C42.3082 11.7728 43.0435 11.8581 43.8901 12.8367C43.7809 12.6682 43.6925 12.5081 43.6218 12.3541C43.3576 11.9246 43.0789 11.5045 42.7856 11.0957L42.7773 11.1259C41.445 11.5034 40.7337 11.284 39.7093 10.0557C40.7181 9.84775 41.3785 9.83423 42.2458 10.5965C41.9786 10.2835 41.808 9.99855 41.7082 9.71671C41.522 9.49727 41.3306 9.28095 41.1351 9.06983C39.9058 9.62623 39.1716 9.51183 37.9839 8.47183C38.947 8.10887 39.597 7.99135 40.5735 8.60807C40.2761 8.35535 40.0691 8.11303 39.9277 7.86447C39.6999 7.65543 39.469 7.45159 39.233 7.25295C38.2325 7.87175 37.571 7.85095 36.4073 7.08343C37.2164 6.64455 37.778 6.46255 38.7161 6.89103C38.4467 6.71839 38.245 6.54471 38.0931 6.35959C37.8217 6.16095 37.545 5.96855 37.2632 5.78343C36.4749 6.41783 35.9164 6.47087 34.8535 5.93839C35.49 5.48911 35.9424 5.28007 36.7734 5.54631C36.4853 5.40591 36.2773 5.25615 36.1213 5.08455C35.9809 5.00447 35.8405 4.92647 35.698 4.84951C35.8353 4.92127 35.9726 4.99407 36.1078 5.06895C35.8478 4.77463 35.7354 4.41687 35.6346 3.94263C36.7942 4.27751 37.1623 4.70391 37.3017 5.75327L37.285 5.76679C37.5305 5.92279 37.7718 6.08399 38.0099 6.24935C37.7385 5.86455 37.6563 5.42567 37.6022 4.84951C38.9178 5.40487 39.2902 5.95607 39.3068 7.20719L39.2922 7.21655C39.4742 7.36423 39.6531 7.51503 39.8289 7.66895C39.6406 7.23527 39.6209 6.76727 39.6469 6.17551C40.9947 6.97423 41.3379 7.63151 41.1902 8.96583C41.34 9.12183 41.4877 9.27991 41.6322 9.43903C41.549 9.01783 41.6031 8.58207 41.7123 8.04855C42.8709 9.00951 43.134 9.69695 42.8386 10.8981C43.0352 11.1592 43.2276 11.4265 43.4127 11.6969C43.3181 11.1311 43.4512 10.5965 43.6873 9.92679C44.8614 11.2091 45.0247 12.0224 44.4527 13.3806C44.6462 13.729 44.8292 14.0826 45.0029 14.4425C44.9197 13.7727 45.135 13.2132 45.5031 12.5008C46.5119 13.9682 46.539 14.8013 45.7267 16.121C45.916 16.6202 46.0876 17.1288 46.2394 17.6457C46.1812 16.7918 46.513 16.1928 47.0777 15.4221C47.8993 17.1361 47.7838 18.0149 46.697 19.2764L46.6492 19.2691C46.7709 19.8494 46.8697 20.4391 46.9425 21.035C46.9529 19.9649 47.4167 19.3481 48.2092 18.5629C48.7885 20.5057 48.5202 21.4105 47.165 22.5586C47.1338 22.5482 47.1037 22.5389 47.0735 22.5274C47.0922 22.8977 47.1016 23.2689 47.1016 23.6433C47.1016 23.8877 47.0974 24.1301 47.0902 24.3724C47.1089 24.4795 47.1266 24.5908 47.1401 24.7093C47.1806 23.244 47.7537 22.6335 48.8062 21.8587C49.0942 23.8659 48.697 24.7229 47.189 25.6599C47.1297 25.6297 47.0714 25.6006 47.0153 25.5715C46.957 26.2163 46.8697 26.8528 46.7553 27.4799C47.1089 26.4295 47.7672 25.9636 48.802 25.4332C48.7635 27.5631 48.2061 28.3847 46.4838 29.1023L46.4058 29.0461Z" fill="#EDF7FE"/>
<path id="Vector_9" fill-rule="evenodd" clip-rule="evenodd" d="M18.7595 38.6399V51.3362L17.3534 51.9997V37.9181C17.8089 38.1791 18.279 38.4204 18.7595 38.6399Z" fill="#EDF7FE"/>
<path id="Vector_10" fill-rule="evenodd" clip-rule="evenodd" d="M34.6465 37.9181V51.9997L25.8876 47.9728L19.37 51.0481V38.904C21.4136 39.7454 23.6527 40.2092 26 40.2092C28.3472 40.2092 30.5864 39.7454 32.63 38.904V51.0107L33.2404 51.3102V38.6399C33.7209 38.4204 34.191 38.1791 34.6465 37.9181Z" fill="#EDF7FE"/>
<path id="Vector_11" fill-rule="evenodd" clip-rule="evenodd" d="M18.7595 51.3365V51.3562L19.37 51.0765V51.0484L18.7595 51.3365Z" fill="#EDF7FE"/>
<path id="Vector_12" fill-rule="evenodd" clip-rule="evenodd" d="M43.4491 16.4382C41.8069 11.9174 38.5923 8.42192 34.6465 6.34712C34.1879 6.1048 33.7178 5.88224 33.2405 5.68048C33.0387 5.59416 32.8349 5.512 32.63 5.43504C28.6073 3.89272 24.0323 3.73776 19.6643 5.32376C19.5655 5.36016 19.4667 5.39656 19.3689 5.43504C19.163 5.51304 18.9592 5.59416 18.7585 5.68048C18.2769 5.88328 17.8089 6.1048 17.3534 6.344C9.25703 10.5914 5.34351 20.2748 8.55087 29.1086C10.192 33.6294 13.4077 37.1249 17.3534 39.1997C17.8121 39.442 18.2811 39.6646 18.7595 39.8663C18.9613 39.9526 19.1651 40.0348 19.37 40.1128C23.3927 41.653 27.9677 41.808 32.3357 40.222C32.4345 40.1866 32.5322 40.1492 32.63 40.1118C32.8359 40.0338 33.0397 39.9516 33.2405 39.8663C33.722 39.6635 34.191 39.442 34.6465 39.2018C42.743 34.9544 46.6565 25.271 43.4491 16.4382ZM34.6465 37.9184C34.191 38.1794 33.7209 38.4207 33.2405 38.6402C33.0387 38.7317 32.8359 38.8201 32.63 38.9043C30.5864 39.7457 28.3473 40.2095 26 40.2095C23.6527 40.2095 21.4136 39.7457 19.37 38.9043C19.1641 38.8201 18.9613 38.7317 18.7595 38.6402C18.279 38.4207 17.8089 38.1794 17.3534 37.9184C12.1025 34.9138 8.56439 29.2562 8.56439 22.7729C8.56439 16.2895 12.1025 10.633 17.3534 7.6284C17.8089 7.3684 18.278 7.12712 18.7585 6.90768C18.9602 6.81512 19.163 6.72672 19.3689 6.64248C21.4125 5.80112 23.6517 5.33728 26 5.33728C28.3483 5.33728 30.5864 5.80112 32.63 6.64248C32.8359 6.72672 33.0387 6.81512 33.2405 6.90664C33.7209 7.12712 34.191 7.3684 34.6465 7.6284C39.8975 10.633 43.4356 16.2895 43.4356 22.7729C43.4356 29.2562 39.8975 34.9138 34.6465 37.9184Z" fill="#EDF7FE"/>
<path id="Vector_13" fill-rule="evenodd" clip-rule="evenodd" d="M18.6628 36.8431L18.6857 36.088L18.1199 35.6231L18.8459 35.411L19.1131 34.7287L19.5385 35.3527L20.2696 35.3964L19.8068 35.9944L19.9919 36.7027L19.2806 36.4478L18.6639 36.842L18.6628 36.8431ZM33.3383 36.8431L32.6955 36.4458L32.0102 36.7037L32.1891 35.9694L31.7325 35.3974L32.4855 35.3413L32.889 34.7298L33.175 35.4287L33.8811 35.6231L33.305 36.1119L33.3383 36.8431ZM29.7991 38.3094L29.2812 37.7593L28.5522 37.8311L28.9151 37.1686L28.6219 36.4978L29.3644 36.6382L29.9115 36.1525L30.0071 36.9023L30.6384 37.2726L29.9551 37.595L29.7981 38.3094H29.7991ZM26.0011 38.8097L25.6433 38.1441L24.9205 38.0245L25.4426 37.4785L25.3334 36.7547L26.0146 37.0822L26.6698 36.7547L26.5679 37.5034L27.0816 38.0245L26.338 38.1587L26.0011 38.8087V38.8097ZM22.0293 37.5742L21.3627 37.2715L22.0085 36.8794L22.0907 36.1514L22.6627 36.6444L23.3792 36.4967L23.088 37.1935L23.4499 37.83L22.697 37.7676L22.204 38.3084L22.0303 37.5731L22.0293 37.5742Z" fill="#EDF7FE"/>
<g id="Group">
<path id="Vector_14" d="M16.7544 10.2115L16.2365 10.6598C16.0534 10.5922 15.8631 10.6379 15.6873 10.7898C15.3857 11.0508 15.3701 11.4377 15.6603 11.7726C15.9682 12.1293 16.3519 12.1615 16.6889 11.8703C16.9218 11.6686 16.9769 11.4055 16.8605 11.1267L16.2656 11.6415L15.9671 11.2963L16.9873 10.4143L17.3649 10.8501C17.5531 11.2671 17.5188 11.8766 17.0123 12.3155C16.4362 12.8136 15.6821 12.7616 15.184 12.1855C14.6858 11.6093 14.7378 10.8553 15.314 10.3571C15.7747 9.95883 16.3134 9.90579 16.7565 10.2126L16.7544 10.2115Z" fill="#EDF7FE"/>
<path id="Vector_15" d="M16.7273 9.25835L17.2598 8.94115L18.0388 10.2495C18.1927 10.5084 18.41 10.5812 18.6617 10.4315C18.9144 10.2807 18.9592 10.0519 18.8052 9.79291L18.0263 8.48459L18.5588 8.16739L19.3356 9.47259C19.6955 10.0768 19.45 10.6291 18.9456 10.9286C18.4381 11.2312 17.864 11.1678 17.5042 10.5625L16.7273 9.25731V9.25835Z" fill="#EDF7FE"/>
<path id="Vector_16" d="M21.3782 9.27161L20.4901 9.60961L20.5078 10.0839L19.9014 10.3147L19.8578 7.60761L20.5286 7.35281L22.2945 9.40473L21.6809 9.63769L21.3782 9.27161ZM20.4329 8.12137L20.4724 9.10313L21.059 8.88057L20.4329 8.12137Z" fill="#EDF7FE"/>
<path id="Vector_17" d="M22.8966 6.71299C23.5081 6.59235 23.8835 6.88355 23.9699 7.31827C24.0312 7.63131 23.9189 7.95995 23.558 8.15027L24.3297 9.02595L23.6433 9.16115L22.9371 8.32083L22.7915 8.34995L22.9777 9.29219L22.3693 9.41283L21.8763 6.91579L22.8976 6.71403L22.8966 6.71299ZM22.9611 7.22467L22.5835 7.29955L22.7063 7.91835L23.0838 7.84347C23.3115 7.79875 23.3947 7.66043 23.3563 7.46491C23.3199 7.27979 23.1888 7.17995 22.9611 7.22467Z" fill="#EDF7FE"/>
<path id="Vector_18" d="M26.0582 8.50721L25.1087 8.53425L24.9694 8.98769L24.3204 9.00641L25.169 6.43553L25.8866 6.41473L26.8798 8.93257L26.2236 8.95129L26.0582 8.50617V8.50721ZM25.5434 7.11049L25.2585 8.05065L25.8856 8.03297L25.5434 7.11049Z" fill="#EDF7FE"/>
<path id="Vector_19" d="M29.5682 6.76863L29.1907 9.28647L28.5771 9.19495L27.7836 7.48831L27.5506 9.04103L26.937 8.94951L27.3145 6.43167L27.9281 6.52319L28.7206 8.23711L28.9546 6.67711L29.5682 6.76863Z" fill="#EDF7FE"/>
<path id="Vector_20" d="M30.0747 6.89939L31.9498 7.50155L31.798 7.97475L31.1563 7.76779L30.5292 9.71883L29.9385 9.52851L30.5656 7.57747L29.9229 7.37051L30.0747 6.89731V6.89939Z" fill="#EDF7FE"/>
<path id="Vector_21" d="M33.5857 8.82156L32.7391 8.41492L32.5166 8.87876L33.2654 9.2386L33.0584 9.6702L32.3096 9.31036L32.0683 9.81372L32.9149 10.2204L32.6996 10.6676L31.2946 9.9926L32.397 7.69836L33.802 8.37332L33.5867 8.82052L33.5857 8.82156Z" fill="#EDF7FE"/>
<path id="Vector_22" d="M35.3329 9.92578L34.5467 9.41202L34.2649 9.84362L34.9606 10.2981L34.6985 10.6985L34.0028 10.244L33.697 10.712L34.4833 11.2258L34.2118 11.6418L32.9056 10.789L34.2971 8.65698L35.6033 9.50978L35.3319 9.92578H35.3329Z" fill="#EDF7FE"/>
<path id="Vector_23" d="M36.947 12.3302C36.4437 12.8918 35.7094 12.9303 35.1042 12.3885L34.3938 11.752L36.0922 9.85504L36.8025 10.4915C37.4077 11.0334 37.4535 11.7655 36.9481 12.3302H36.947ZM35.4318 11.9621C35.7802 12.2741 36.1649 12.2585 36.4769 11.9101C36.7889 11.5617 36.7671 11.1727 36.4187 10.8607L36.2003 10.6652L35.2133 11.7676L35.4318 11.9631V11.9621Z" fill="#EDF7FE"/>
</g>
<g id="Group_2">
<path id="Vector_24" fill-rule="evenodd" clip-rule="evenodd" d="M18.2458 24.882C17.7372 24.882 17.4159 25.2346 17.4159 25.792C17.4159 26.3495 17.7372 26.702 18.2458 26.702C18.7543 26.702 19.0715 26.3401 19.0715 25.792C19.0715 25.2439 18.746 24.882 18.2458 24.882Z" fill="#EDF7FE"/>
<path id="Vector_25" fill-rule="evenodd" clip-rule="evenodd" d="M24.4078 26.2259H25.1795L24.7915 25.0788L24.4078 26.2259Z" fill="#EDF7FE"/>
<path id="Vector_26" fill-rule="evenodd" clip-rule="evenodd" d="M17.5074 20.228C17.5074 19.9867 17.3784 19.8349 17.0747 19.8349H16.6598V20.6201H17.0747C17.3784 20.6201 17.5074 20.4683 17.5074 20.227V20.228Z" fill="#EDF7FE"/>
<path id="Vector_27" fill-rule="evenodd" clip-rule="evenodd" d="M20.3362 20.2363C20.3362 20.0044 20.202 19.8526 19.917 19.8526H19.4438V20.6294H19.917C20.203 20.6294 20.3362 20.4818 20.3362 20.2363Z" fill="#EDF7FE"/>
<path id="Vector_28" fill-rule="evenodd" clip-rule="evenodd" d="M34.6466 13.5814C34.2056 13.1747 33.7355 12.7993 33.2405 12.4582C33.0419 12.3199 32.838 12.1878 32.63 12.0619C30.6977 10.8857 28.4274 10.2076 26 10.2076C23.5727 10.2076 21.3013 10.8857 19.369 12.0619C19.161 12.1888 18.9571 12.3209 18.7585 12.4582C18.2635 12.8003 17.7944 13.1747 17.3535 13.5814C14.819 15.9141 13.2319 19.2598 13.2319 22.9757C13.2319 26.6916 14.819 30.0373 17.3535 32.37C17.7944 32.7767 18.2645 33.1521 18.7595 33.4932C18.9582 33.6315 19.162 33.7636 19.37 33.8895C21.3023 35.0657 23.5727 35.7438 26 35.7438C28.4274 35.7438 30.6977 35.0657 32.63 33.8895C32.838 33.7636 33.0419 33.6315 33.2405 33.4932C33.7355 33.1521 34.2056 32.7767 34.6466 32.37C37.1811 30.0373 38.7681 26.6916 38.7681 22.9757C38.7681 19.2598 37.1811 15.9141 34.6466 13.5814ZM29.8033 12.4634L30.0425 12.558L30.2692 12.4405L30.2526 12.6974L30.4346 12.8752L30.186 12.9387L30.0727 13.1675L29.9354 12.9501L29.6837 12.9127L29.847 12.714L29.8054 12.4634H29.8033ZM29.4029 19.2192H30.1663V21.0933C30.1663 21.4635 30.3493 21.6778 30.7102 21.6778C31.0711 21.6778 31.2635 21.4635 31.2635 21.0933V19.2192H32.0268V21.0891C32.0268 21.9544 31.4195 22.3829 30.6967 22.3829C29.9739 22.3829 29.4029 21.9544 29.4029 21.0891V19.2192ZM28.5106 12.1701L28.7643 12.2127L28.9609 12.0505L28.9983 12.3043L29.2136 12.4405L28.9827 12.5549L28.9193 12.8014L28.7394 12.6173L28.4856 12.6329L28.6052 12.4051L28.5116 12.168L28.5106 12.1701ZM28.1008 19.2192H28.8642V22.3517H28.1008V19.2192ZM27.3728 11.9226L27.5538 11.7437L27.6141 11.9933L27.8408 12.1098L27.6214 12.2439L27.5798 12.4946L27.3843 12.3282L27.1326 12.3667L27.2314 12.1285L27.117 11.9007L27.3728 11.9205V11.9226ZM25.8596 11.8383L25.9844 11.6158L26.1113 11.8394L26.3609 11.8893L26.1872 12.0796L26.2174 12.3323L25.9834 12.2263L25.7515 12.3323L25.7806 12.0775L25.6079 11.8903L25.8596 11.8394V11.8383ZM24.388 11.9933L24.4483 11.7437L24.6293 11.9226L24.8851 11.9028L24.7707 12.1306L24.8685 12.3687L24.6168 12.3303L24.4213 12.4967L24.3797 12.246L24.1603 12.1119L24.3859 11.9954L24.388 11.9933ZM24.0043 19.2192H24.9059L25.7847 21.3876L26.6552 19.2192H27.5517V22.3517H26.7883V20.4735L26.0874 22.3517H25.4717L24.7666 20.4683V22.3517H24.0032V19.2192H24.0043ZM23.0038 12.3053L23.0412 12.0515L23.2378 12.2138L23.4915 12.1711L23.3979 12.4083L23.5165 12.636L23.2627 12.6204L23.0828 12.8045L23.0194 12.558L22.7885 12.4436L23.0038 12.3074V12.3053ZM23.3751 20.4641V21.0527H22.3527V21.7402H23.5082V22.3517H21.5894V19.2192H23.5082V19.8307H22.3527V20.4641H23.3751ZM21.7329 12.4405L21.9586 12.558L22.1978 12.4634L22.1551 12.714L22.3195 12.9127L22.0678 12.9501L21.9305 13.1675L21.8171 12.9387L21.5686 12.8752L21.7506 12.6974L21.735 12.4405H21.7329ZM18.6815 19.2192H19.9618C20.7293 19.2192 21.1131 19.6612 21.1131 20.2051C21.1131 20.5983 20.8988 20.9685 20.4173 21.111L21.1401 22.3517H20.279L19.6279 21.1692H19.4449V22.3517H18.6815V19.2192ZM15.8975 19.2192H17.134C17.9015 19.2192 18.2853 19.6519 18.2853 20.228C18.2853 20.7459 17.9327 21.2275 17.134 21.2275H16.6608V22.3517H15.8975V19.2192ZM18.9967 27.9032L18.5952 27.3635C18.4839 27.3853 18.3675 27.3988 18.2468 27.3988C17.3587 27.3988 16.6359 26.7343 16.6359 25.792C16.6359 24.8498 17.3587 24.1904 18.2468 24.1904C19.135 24.1904 19.8484 24.8508 19.8484 25.792C19.8484 26.3411 19.6071 26.7915 19.2327 27.0775L19.9202 27.9032H18.9967ZM22.1978 33.488L21.9586 33.3934L21.7329 33.5109L21.7485 33.2551L21.5665 33.0762L21.8151 33.0127L21.9284 32.7839L22.0657 33.0013L22.3174 33.0387L22.1531 33.2374L22.1957 33.488H22.1978ZM21.5613 27.3999C20.8343 27.3999 20.2675 26.9714 20.2675 26.1061V24.2362H21.0309V26.1103C21.0309 26.4805 21.2139 26.6947 21.5748 26.6947C21.9357 26.6947 22.1281 26.4805 22.1281 26.1103V24.2362H22.8915V26.1061C22.8915 26.9714 22.2841 27.3999 21.5613 27.3999ZM23.4905 33.7813L23.2367 33.7387L23.0402 33.9009L23.0027 33.6471L22.7875 33.5109L23.0183 33.3965L23.0818 33.15L23.2617 33.3331L23.5155 33.3175L23.3969 33.5452L23.4905 33.7823V33.7813ZM24.6283 34.0288L24.4473 34.2077L24.387 33.9581L24.1613 33.8416L24.3807 33.7075L24.4223 33.4558L24.6179 33.6232L24.8695 33.5847L24.7718 33.8219L24.8862 34.0496L24.6303 34.0299L24.6283 34.0288ZM26.1092 34.111L25.9823 34.3346L25.8575 34.1131L25.6059 34.0611L25.7785 33.8739L25.7494 33.6191L25.9813 33.7251L26.2153 33.6191L26.1851 33.8718L26.3588 34.0621L26.1092 34.112V34.111ZM25.5632 27.3676L25.376 26.8143H24.2071L24.0199 27.3676H23.2211L24.3547 24.2351H25.2387L26.3723 27.3676H25.5643H25.5632ZM27.6131 33.9581L27.5527 34.2077L27.3718 34.0288L27.1159 34.0486L27.2303 33.8208L27.1315 33.5837L27.3832 33.6222L27.5787 33.4547L27.6203 33.7064L27.8398 33.8406L27.6131 33.9571V33.9581ZM28.4763 27.3676H26.7135V24.2351H27.4768V26.779H28.4763V27.3676ZM28.9963 33.6461L28.9588 33.8999L28.7623 33.7376L28.5085 33.7803L28.6021 33.5431L28.4825 33.3154L28.7363 33.331L28.9162 33.1479L28.9796 33.3944L29.2105 33.5088L28.9952 33.6451L28.9963 33.6461ZM29.6047 27.3676H28.8413V24.2351H29.6047V27.3676ZM30.2671 33.5109L30.0404 33.3934L29.8012 33.488L29.8428 33.2374L29.6795 33.0387L29.9312 33.0013L30.0685 32.7839L30.1819 33.0127L30.4304 33.0762L30.2484 33.2551L30.2651 33.5109H30.2671ZM32.4116 24.8467H31.5817V27.3676H30.8183V24.8467H29.9884V24.2351H32.4116V24.8467ZM34.397 26.3328V27.3687H33.6336V26.3328L32.5489 24.2351H33.4142L34.0215 25.5476L34.6237 24.2351H35.4807L34.3959 26.3328H34.397ZM35.3455 22.3517V20.4735L34.6445 22.3517H34.0288L33.3237 20.4683V22.3517H32.5603V19.2192H33.462L34.3408 21.3876L35.2113 19.2192H36.1078V22.3517H35.3444H35.3455Z" fill="#EDF7FE"/>
</g>
</g>
</svg>
