<svg width="52" height="52" viewBox="0 0 52 52" fill="none" xmlns="http://www.w3.org/2000/svg">
<g id="badge-100-customer-satisfaction-guaranteed-blue" clip-path="url(#clip0_152_6760)">
<path id="Vector" d="M25.8669 48.4068C19.917 48.4068 14.3239 46.0897 10.1161 41.8829C5.90824 37.6761 3.59216 32.0819 3.59216 26.1321C3.59216 20.1822 5.90928 14.5891 10.1161 10.3813C14.3229 6.17448 19.917 3.85736 25.8669 3.85736C31.8167 3.85736 37.4098 6.17448 41.6177 10.3813C45.8245 14.5881 48.1416 20.1822 48.1416 26.1321C48.1416 32.0819 45.8245 37.675 41.6177 41.8829C37.4109 46.0907 31.8167 48.4068 25.8669 48.4068ZM25.8669 4.6904C14.0431 4.6904 4.42416 14.3094 4.42416 26.1331C4.42416 37.9569 14.0431 47.5758 25.8669 47.5758C37.6906 47.5758 47.3096 37.9569 47.3096 26.1331C47.3096 14.3094 37.6906 4.6904 25.8669 4.6904Z" fill="#EDF7FE"/>
<g id="Group">
<path id="Vector_2" d="M9.19988 33.9188L9.38396 34.3254L8.73084 34.6218L8.21396 33.4841L11.2133 32.1227L11.5451 32.8538L9.19884 33.9188H9.19988Z" fill="#EDF7FE"/>
<path id="Vector_3" d="M7.47137 31.5976C7.19993 30.6991 7.77921 30.1811 8.70273 29.9024C9.63561 29.6206 10.4042 29.7329 10.6756 30.6315C10.947 31.53 10.3678 32.0479 9.43593 32.3298C8.51137 32.6085 7.74281 32.4962 7.47241 31.5987L7.47137 31.5976ZM8.16193 31.3896C8.29401 31.8254 8.73185 31.7495 9.21545 31.6039C9.71673 31.4531 10.115 31.2763 9.98401 30.8395C9.85297 30.4027 9.42241 30.4765 8.92113 30.6273C8.43753 30.7729 8.02985 30.9528 8.16193 31.3886V31.3896Z" fill="#EDF7FE"/>
<path id="Vector_4" d="M6.79951 28.4315C6.68303 27.5007 7.34031 27.0858 8.29815 26.9662C9.26535 26.8445 10.0048 27.0837 10.1213 28.0155C10.2377 28.9463 9.58047 29.3613 8.61431 29.4819C7.65647 29.6026 6.91703 29.3634 6.80055 28.4315H6.79951ZM7.51607 28.3421C7.57327 28.7945 8.01839 28.7924 8.51967 28.73C9.03863 28.6645 9.46191 28.5574 9.40575 28.105C9.34959 27.6526 8.91279 27.6526 8.39279 27.7181C7.89151 27.7805 7.45991 27.8897 7.51607 28.3421Z" fill="#EDF7FE"/>
<path id="Vector_5" d="M6.75688 25.739C6.786 25.3115 7.06887 25.0099 7.56808 25.0442C8.06728 25.0786 8.30647 25.4155 8.27735 25.843C8.24823 26.2704 7.96536 26.5762 7.46512 26.5429C6.96592 26.5086 6.72672 26.1664 6.75584 25.739H6.75688ZM6.91288 24.181L6.96384 23.4385L10.0142 25.3874L9.9632 26.13L6.91288 24.181ZM7.50256 26.0114C7.71368 26.026 7.81456 25.9511 7.82288 25.8159C7.83224 25.6807 7.74384 25.5892 7.53168 25.5746C7.31536 25.5601 7.21552 25.6391 7.20616 25.7743C7.1968 25.9095 7.28624 25.9969 7.50152 26.0114H7.50256ZM8.64968 23.7203C8.6788 23.2929 8.95752 22.9913 9.46088 23.0256C9.96008 23.0599 10.1993 23.3969 10.1702 23.8243C10.141 24.2518 9.85816 24.5534 9.35896 24.519C8.85456 24.4847 8.62056 24.1478 8.64968 23.7203ZM9.39535 23.9928C9.60647 24.0074 9.70736 23.9325 9.71568 23.7973C9.72504 23.6621 9.63664 23.5706 9.42448 23.556C9.21336 23.5414 9.10832 23.6205 9.09896 23.7557C9.0896 23.8909 9.1832 23.9782 9.39432 23.9928H9.39535Z" fill="#EDF7FE"/>
<path id="Vector_6" d="M7.86447 19.7018C8.11095 18.9904 8.69751 18.591 9.40367 18.6451L9.12703 19.447C8.82855 19.4823 8.62263 19.6633 8.52695 19.941C8.37199 20.3882 8.59871 20.8104 9.12703 20.9934C9.65535 21.1765 10.0942 20.9841 10.2492 20.5369C10.3449 20.2602 10.2949 19.9898 10.0828 19.7777L10.3594 18.9758C10.9481 19.37 11.1592 20.045 10.9127 20.7563C10.608 21.6382 9.76559 22.0438 8.87015 21.735C7.97471 21.4261 7.55975 20.5847 7.86447 19.7028V19.7018Z" fill="#EDF7FE"/>
<path id="Vector_7" d="M8.72459 17.6044L9.10939 16.9357L10.7516 17.881C11.076 18.0682 11.3558 18.0152 11.5378 17.699C11.7198 17.3829 11.6293 17.1062 11.3048 16.919L9.66267 15.9737L10.0475 15.305L11.6855 16.2482C12.4436 16.685 12.5133 17.4328 12.1493 18.0662C11.7822 18.7037 11.1218 18.9845 10.3626 18.5477L8.72459 17.6044Z" fill="#EDF7FE"/>
<path id="Vector_8" d="M13.7218 15.8041C13.287 16.3293 12.688 16.5238 12.1794 16.1327L12.7025 15.5004C12.9043 15.6387 13.0925 15.5951 13.2309 15.4276C13.3744 15.2539 13.3796 15.0709 13.2371 14.9534C12.7857 14.58 12.0193 16.0007 11.1592 15.2779C10.6974 14.8951 10.7536 14.3034 11.1758 13.7927C11.6157 13.2613 12.1763 13.1219 12.662 13.4828L12.1305 14.1255C11.9652 14.007 11.7801 14.0403 11.6438 14.1973C11.5221 14.3367 11.5065 14.5051 11.6594 14.632C12.0837 14.9825 12.8898 13.6191 13.7072 14.294C14.117 14.6331 14.1929 15.2352 13.7218 15.8051V15.8041Z" fill="#EDF7FE"/>
<path id="Vector_9" d="M12.3729 12.4787L14.2054 10.8531L14.6151 11.3149L13.988 11.8723L15.6801 13.7787L15.1029 14.2903L13.4108 12.384L12.7837 12.9415L12.3739 12.4797L12.3729 12.4787Z" fill="#EDF7FE"/>
<path id="Vector_10" d="M17.681 12.3781C16.9156 12.8471 15.9411 12.6558 15.444 11.8435C14.9469 11.0323 15.2214 10.0807 15.9869 9.61168C16.7565 9.14056 17.7164 9.33504 18.2135 10.1462C18.7106 10.9574 18.4465 11.908 17.681 12.377V12.3781ZM17.3139 11.778C17.7445 11.5138 17.8349 11.0302 17.5448 10.557C17.2505 10.0766 16.7835 9.94448 16.3519 10.2086C15.913 10.477 15.8225 10.9512 16.1169 11.4317C16.407 11.9049 16.875 12.0463 17.3129 11.778H17.3139Z" fill="#EDF7FE"/>
<path id="Vector_11" d="M18.096 8.45312L18.9582 8.15776L20.5088 9.94344L20.6305 7.58472L21.4885 7.29144L22.515 10.2866L21.7849 10.5362L21.1692 8.74016L21.1141 10.7661L20.5254 10.9678L19.2348 9.39848L19.8515 11.1987L19.1214 11.4483L18.095 8.45312H18.096Z" fill="#EDF7FE"/>
<path id="Vector_12" d="M24.3506 7.50654L23.1941 7.67086L23.2846 8.30526L24.3069 8.15966L24.3912 8.74934L23.3688 8.89494L23.4666 9.58238L24.6231 9.41806L24.7104 10.0296L22.7906 10.3031L22.3434 7.16854L24.2632 6.89502L24.3506 7.50654Z" fill="#EDF7FE"/>
<path id="Vector_13" d="M26.3099 6.84529C27.0857 6.85777 27.4664 7.31017 27.457 7.86137C27.4508 8.25865 27.2282 8.62889 26.7384 8.76513L27.4487 10.0308L26.5782 10.0163L25.9386 8.81089L25.7535 8.80777L25.7337 10.0027L24.9621 9.99025L25.013 6.82449L26.3078 6.84529H26.3099ZM26.2548 7.48489L25.7764 7.47761L25.7639 8.26281L26.2423 8.27009C26.5314 8.27425 26.6687 8.12761 26.6729 7.88009C26.677 7.64609 26.5439 7.49009 26.2548 7.48489Z" fill="#EDF7FE"/>
<path id="Vector_14" d="M29.6369 10.4562C28.9734 10.3033 28.5303 9.85403 28.652 9.22483L29.4518 9.40891C29.4195 9.65123 29.5422 9.79995 29.7534 9.84883C29.9728 9.89979 30.1392 9.82179 30.1808 9.64187C30.3129 9.07091 28.6988 9.02307 28.9598 7.93003C29.094 7.34555 29.6483 7.13027 30.2952 7.27899C30.9681 7.43395 31.3435 7.87179 31.2385 8.46875L30.4252 8.28155C30.4574 8.08083 30.3441 7.93003 30.1434 7.87907C29.9645 7.83331 29.8064 7.89363 29.7617 8.08707C29.6379 8.62371 31.2187 8.73291 30.9816 9.76563C30.862 10.2846 30.3586 10.6215 29.6379 10.4562H29.6369Z" fill="#EDF7FE"/>
<path id="Vector_15" d="M33.0013 10.9876L31.9134 10.5259L31.5203 10.9668L30.7767 10.6517L33.0678 8.18378L33.8905 8.53218L33.7085 11.8945L32.9566 11.5752L33.0002 10.9866L33.0013 10.9876ZM33.1427 9.14162L32.3326 10.0579L33.0512 10.3626L33.1427 9.14162Z" fill="#EDF7FE"/>
<path id="Vector_16" d="M35.3298 9.2193L37.389 10.5453L37.0542 11.0653L36.349 10.6108L34.969 12.7532L34.32 12.3351L35.7001 10.1927L34.995 9.73826L35.3298 9.21826V9.2193Z" fill="#EDF7FE"/>
<path id="Vector_17" d="M37.8217 10.9187L38.4186 11.4075L36.4135 13.8599L35.8166 13.3711L37.8217 10.9187Z" fill="#EDF7FE"/>
<path id="Vector_18" d="M37.4941 14.9279C37.0198 14.4391 36.893 13.8213 37.3381 13.3595L37.909 13.9492C37.7499 14.1343 37.7718 14.3267 37.9226 14.4817C38.0796 14.6439 38.2606 14.6689 38.3937 14.5399C38.8149 14.1323 37.4868 13.2139 38.3001 12.4391C38.7306 12.0221 39.313 12.1427 39.7738 12.6191C40.2542 13.1151 40.3302 13.6871 39.9183 14.1302L39.338 13.5311C39.4742 13.3803 39.4618 13.1921 39.3203 13.0392C39.1945 12.903 39.0302 12.8687 38.8866 13.007C38.4914 13.3897 39.7582 14.3413 38.9969 15.0787C38.6142 15.4489 38.0078 15.4583 37.4941 14.9268V14.9279Z" fill="#EDF7FE"/>
<path id="Vector_19" d="M41.0373 14.092L42.2365 15.7685L41.7342 16.1283L40.9843 15.079L40.4414 15.4669L41.003 16.2521L40.5153 16.6005L39.9537 15.8153L38.9116 16.5599L38.4633 15.9328L41.0394 14.091L41.0373 14.092Z" fill="#EDF7FE"/>
<path id="Vector_20" d="M41.1278 19.2525L40.6078 18.1917L40.0223 18.2676L39.6666 17.5427L43.0133 17.1777L43.4065 17.9795L41.0675 20.4017L40.7077 19.6685L41.1268 19.2525H41.1278ZM42.4434 17.9494L41.2318 18.1116L41.575 18.8126L42.4434 17.9504V17.9494Z" fill="#EDF7FE"/>
<path id="Vector_21" d="M44.5442 21.034C44.7398 21.762 44.4777 22.4203 43.862 22.7718L43.6426 21.9534C43.8703 21.7568 43.939 21.4906 43.863 21.2077C43.7403 20.7501 43.316 20.5275 42.7762 20.6731C42.2365 20.8177 41.9806 21.2233 42.1034 21.6809C42.1793 21.9638 42.3717 22.1603 42.667 22.2165L42.8865 23.035C42.1772 23.0381 41.625 22.5982 41.4294 21.8712C41.1871 20.9695 41.6572 20.1614 42.5714 19.916C43.4866 19.6706 44.3019 20.1334 44.5432 21.035L44.5442 21.034Z" fill="#EDF7FE"/>
<path id="Vector_22" d="M44.9748 23.0748L45.1901 25.5147L44.5744 25.5688L44.5006 24.7326L41.9609 24.9572L41.8933 24.1887L44.433 23.964L44.3591 23.1279L44.9748 23.0738V23.0748Z" fill="#EDF7FE"/>
<path id="Vector_23" d="M45.161 26.0809L45.1423 26.8526L41.9765 26.7767L41.9953 26.005L45.161 26.0809Z" fill="#EDF7FE"/>
<path id="Vector_24" d="M41.7487 28.6C41.8933 27.7139 42.6754 27.1014 43.6145 27.2553C44.5536 27.4092 45.0944 28.2381 44.9498 29.1242C44.8042 30.0144 44.0294 30.6145 43.0903 30.4606C42.1512 30.3067 41.6042 29.4861 41.7498 28.6H41.7487ZM42.4434 28.7134C42.3623 29.2115 42.6691 29.5963 43.2172 29.6858C43.7736 29.7773 44.1782 29.509 44.2603 29.0108C44.3435 28.5033 44.044 28.1258 43.4876 28.0343C42.9406 27.9448 42.5266 28.2059 42.4445 28.7134H42.4434Z" fill="#EDF7FE"/>
<path id="Vector_25" d="M43.4304 34.0858L40.4675 32.9688L40.7399 32.2471L43.0227 31.7292L41.1955 31.0396L41.4679 30.3179L44.4309 31.4348L44.1584 32.1566L41.8673 32.6714L43.7039 33.364L43.4315 34.0858H43.4304Z" fill="#EDF7FE"/>
</g>
<g id="Group_2">
<path id="Vector_26" d="M15.2184 39.2253L14.6079 38.6305C14.6724 38.3965 14.5954 38.1645 14.3895 37.9628C14.0338 37.6165 13.5523 37.6383 13.1685 38.0325C12.7588 38.4526 12.7587 38.931 13.156 39.3179C13.4306 39.5852 13.7623 39.6257 14.0951 39.4531L13.3942 38.7698L13.7915 38.3632L14.9927 39.5353L14.4914 40.049C13.9943 40.3267 13.2351 40.3485 12.6371 39.7661C11.959 39.1047 11.9444 38.1635 12.6059 37.4854C13.2673 36.8073 14.2085 36.7928 14.8866 37.4542C15.4295 37.9836 15.5522 38.645 15.2184 39.2274V39.2253Z" fill="#EDF7FE"/>
<path id="Vector_27" d="M16.0691 38.6078L16.7118 39.0342L15.6656 40.614C15.4586 40.926 15.4929 41.2089 15.7976 41.4106C16.1024 41.6124 16.3832 41.5396 16.5901 41.2266L17.6364 39.6468L18.2791 40.0732L17.2349 41.6488C16.7513 42.3778 16.0004 42.4007 15.392 41.9962C14.7795 41.5895 14.5413 40.9125 15.0239 40.1834L16.068 38.6078H16.0691Z" fill="#EDF7FE"/>
<path id="Vector_28" d="M19.3035 43.3679L18.2146 42.9082L17.8225 43.3502L17.0789 43.0361L19.3669 40.5651L20.1895 40.9124L20.0127 44.2758L19.2608 43.9575L19.3045 43.3689L19.3035 43.3679ZM19.4418 41.5208L18.6327 42.4381L19.3513 42.7418L19.4407 41.5208H19.4418Z" fill="#EDF7FE"/>
<path id="Vector_29" d="M22.5867 41.6267C23.3439 41.7962 23.6247 42.3162 23.5051 42.8539C23.4187 43.2408 23.1255 43.559 22.6179 43.5944L23.0568 44.9776L22.2071 44.7872L21.8255 43.4768L21.6445 43.4363L21.3835 44.6032L20.6305 44.4347L21.3221 41.3438L22.5857 41.6267H22.5867ZM22.4027 42.2424L21.9357 42.1384L21.7641 42.9048L22.2311 43.0088C22.5129 43.0723 22.6772 42.9558 22.7313 42.7145C22.7823 42.4857 22.6835 42.3069 22.4027 42.2434V42.2424Z" fill="#EDF7FE"/>
<path id="Vector_30" d="M25.7869 44.6065L24.6065 44.5566L24.3933 45.1078L23.5862 45.0735L24.8654 41.9587L25.7577 41.9961L26.7686 45.2077L25.9533 45.1733L25.7879 44.6065H25.7869ZM25.271 42.8281L24.8342 43.9701L25.6142 44.0033L25.271 42.8281Z" fill="#EDF7FE"/>
<path id="Vector_31" d="M29.7575 41.6103L30.2214 44.7428L29.458 44.8561L27.8959 43.1131L28.1819 45.0454L27.4186 45.1588L26.9547 42.0263L27.7181 41.9129L29.2812 43.6653L28.9942 41.7247L29.7575 41.6113V41.6103Z" fill="#EDF7FE"/>
<path id="Vector_32" d="M29.872 41.5667L32.1964 40.795L32.3908 41.3815L31.5942 41.6457L32.3971 44.0647L31.6649 44.3081L30.862 41.8891L30.0654 42.1532L29.8709 41.5667H29.872Z" fill="#EDF7FE"/>
<path id="Vector_33" d="M34.3481 40.3922L33.3039 40.9174L33.592 41.4894L34.5145 41.0245L34.7828 41.556L33.8603 42.0208L34.1723 42.6417L35.2155 42.1165L35.4931 42.6688L33.7605 43.5413L32.3357 40.7125L34.0683 39.84L34.346 40.3922H34.3481Z" fill="#EDF7FE"/>
<path id="Vector_34" d="M36.2586 39.0956L35.2977 39.7612L35.6627 40.2885L36.5124 39.6999L36.8514 40.1897L36.0017 40.7783L36.3969 41.3493L37.3579 40.6837L37.7094 41.1923L36.1141 42.2967L34.3117 39.6926L35.9071 38.5881L36.2586 39.0967V39.0956Z" fill="#EDF7FE"/>
<path id="Vector_35" d="M39.2652 37.6162C39.9162 38.2911 39.8965 39.2063 39.1695 39.9083L38.3157 40.732L36.1171 38.4523L36.971 37.6287C37.6979 36.9277 38.611 36.9371 39.2652 37.6162ZM38.6703 39.4622C39.0894 39.0587 39.104 38.5803 38.7005 38.1611C38.297 37.742 37.8113 37.7337 37.3932 38.1372L37.1301 38.391L38.4072 39.7159L38.6703 39.4622Z" fill="#EDF7FE"/>
</g>
<path id="Vector_36" d="M26 51.8759C19.0882 51.8759 12.5903 49.1844 7.7033 44.2974C2.8153 39.4094 0.123779 32.9115 0.123779 25.9997C0.123779 19.0878 2.8153 12.5899 7.7033 7.70295C12.5903 2.81495 19.0882 0.123428 26 0.123428C32.9119 0.123428 39.4098 2.81495 44.2967 7.70191C49.1837 12.5889 51.8752 19.0878 51.8752 25.9986C51.8752 32.9094 49.1837 39.4084 44.2967 44.2953C39.4098 49.1823 32.9108 51.8738 26 51.8738V51.8759ZM26 1.16343C12.3053 1.16343 1.16378 12.3049 1.16378 25.9997C1.16378 39.6944 12.3053 50.8359 26 50.8359C39.6947 50.8359 50.8363 39.6944 50.8363 25.9997C50.8363 12.3049 39.6947 1.16343 26 1.16343Z" fill="#EDF7FE"/>
<path id="Vector_37" d="M30.6186 23.0627C30.6238 25.5993 28.5542 27.6741 26.0145 27.6761C23.4759 27.6782 21.4063 25.6117 21.4032 23.07C21.399 20.5313 23.4676 18.4597 26.0072 18.4576C28.549 18.4555 30.6134 20.5168 30.6186 23.0627ZM25.6016 23.2769C25.2304 22.9046 24.8695 22.5406 24.5336 22.2037C24.2975 22.4377 24.0614 22.6706 23.8451 22.8849C24.4316 23.4725 25.0307 24.0725 25.6183 24.6612C26.4732 23.8073 27.3364 22.9431 28.186 22.0945C27.9604 21.8677 27.7264 21.6327 27.4861 21.3904C26.8725 22.005 26.2485 22.628 25.6016 23.2759V23.2769Z" fill="#EDF7FE"/>
<path id="Vector_38" d="M26 11.8976C18.2114 11.8976 11.8976 18.2115 11.8976 26C11.8976 33.7886 18.2114 40.1024 26 40.1024C33.7886 40.1024 40.1024 33.7886 40.1024 26C40.1024 18.2115 33.7886 11.8976 26 11.8976ZM22.0418 30.9452C21.762 31.2021 21.4999 31.4777 21.2202 31.7335C21.1026 31.8407 21.0652 31.9405 21.0995 32.1017C21.1796 32.4782 21.2274 32.8609 21.3013 33.2384C21.3231 33.3487 21.2763 33.3975 21.1994 33.4412C21.1193 33.488 21.0662 33.5868 20.9362 33.513C20.5764 33.3102 20.2051 33.1282 19.8422 32.9316C19.7517 32.8827 19.683 32.8848 19.5936 32.9337C19.2358 33.1282 18.8687 33.306 18.5141 33.5078C18.3799 33.5847 18.3217 33.4943 18.2343 33.4423C18.147 33.3903 18.1147 33.3341 18.1366 33.2218C18.2156 32.8224 18.2811 32.4199 18.3456 32.0175C18.355 31.9623 18.3518 31.8802 18.3175 31.8469C17.9837 31.5183 17.6415 31.1969 17.3025 30.8745V30.8069C17.343 30.523 17.5458 30.4835 17.784 30.4606C18.1106 30.4304 18.435 30.3774 18.7585 30.3181C18.8261 30.3056 18.9062 30.2401 18.9394 30.1777C19.1235 29.8272 19.3034 29.4736 19.4667 29.1127C19.526 28.9807 19.6092 28.9703 19.7298 28.964C19.8588 28.9578 19.9181 29.0077 19.9711 29.12C20.1365 29.4736 20.3185 29.8189 20.4838 30.1725C20.5317 30.2744 20.5962 30.3129 20.7002 30.3275C21.0985 30.3805 21.4947 30.4471 21.8941 30.4928C22.021 30.5074 22.0459 30.5802 22.0761 30.6748C22.1073 30.7726 22.1426 30.8516 22.0418 30.9442V30.9452ZM28.3483 30.9307C28.0446 31.2115 27.7493 31.5006 27.4612 31.797C27.4092 31.85 27.377 31.9561 27.3884 32.0299C27.4487 32.4387 27.5194 32.8453 27.5985 33.2509C27.6214 33.3674 27.5517 33.4038 27.483 33.4485C27.4092 33.4963 27.3562 33.5847 27.2334 33.5151C26.884 33.3185 26.5221 33.1427 26.1706 32.9483C26.0603 32.8869 25.975 32.8796 25.8606 32.9441C25.5102 33.1396 25.1472 33.3143 24.7978 33.5109C24.6688 33.5837 24.6137 33.4932 24.5336 33.4423C24.4618 33.3965 24.4026 33.3559 24.4244 33.2426C24.5014 32.8484 24.5586 32.4501 24.6345 32.0559C24.6574 31.9374 24.6386 31.8573 24.5482 31.7731C24.2549 31.4985 23.9751 31.2083 23.6787 30.9369C23.5643 30.8319 23.6371 30.7476 23.66 30.6499C23.6808 30.5594 23.7172 30.5074 23.8254 30.4949C24.2299 30.446 24.6324 30.3805 25.0359 30.3264C25.1358 30.3129 25.194 30.2734 25.2387 30.1798C25.4082 29.822 25.5923 29.4715 25.7608 29.1127C25.8149 28.9983 25.8773 28.938 26.0083 28.9723C26.1539 28.9276 26.2153 29.0139 26.2714 29.1335C26.4358 29.4809 26.6136 29.822 26.7769 30.1704C26.8237 30.2713 26.8871 30.3129 26.9922 30.3264C27.3957 30.3805 27.7982 30.445 28.2027 30.4949C28.314 30.5084 28.3421 30.5698 28.3629 30.6571C28.3847 30.7497 28.4565 30.8308 28.3494 30.9307H28.3483ZM26 28.2079C23.1639 28.2079 20.8655 25.9095 20.8655 23.0735C20.8655 20.2374 23.1639 17.939 26 17.939C28.8361 17.939 31.1345 20.2374 31.1345 23.0735C31.1345 25.9095 28.8361 28.2079 26 28.2079ZM34.633 30.94C34.3377 31.2125 34.0569 31.5006 33.7646 31.7762C33.6814 31.8552 33.6554 31.9291 33.6773 32.0435C33.7532 32.4439 33.8125 32.8474 33.8915 33.2467C33.9165 33.3726 33.8364 33.4059 33.7667 33.4558C33.6929 33.5088 33.6357 33.5764 33.5161 33.5088C33.1573 33.305 32.7891 33.1167 32.4199 32.9337C32.3575 32.9035 32.2546 32.9035 32.1922 32.9337C31.8219 33.1167 31.4548 33.306 31.096 33.5088C30.9587 33.5868 30.9036 33.4839 30.8183 33.435C30.7382 33.3892 30.7018 33.3372 30.7226 33.2301C30.8006 32.8307 30.8703 32.4293 30.9286 32.0258C30.939 31.9519 30.9046 31.8459 30.8526 31.7928C30.5687 31.5006 30.2786 31.2135 29.977 30.94C29.8553 30.8298 29.9385 30.7393 29.9582 30.6374C29.977 30.5386 30.0342 30.5063 30.134 30.4939C30.5386 30.4429 30.9421 30.3857 31.3435 30.3171C31.4111 30.3056 31.4933 30.2411 31.5266 30.1787C31.7086 29.8335 31.8812 29.483 32.0466 29.1304C32.1038 29.0087 32.1682 28.9287 32.3118 28.9723C32.4459 28.9349 32.5042 29.0025 32.5572 29.1148C32.7236 29.4674 32.9056 29.8137 33.071 30.1673C33.1209 30.2744 33.1895 30.3139 33.3008 30.3285C33.6991 30.3805 34.0954 30.4481 34.4947 30.4939C34.6278 30.5095 34.6372 30.5968 34.6684 30.6852C34.7006 30.7767 34.7308 30.8516 34.6351 30.94H34.633Z" fill="#EDF7FE"/>
</g>
<defs>
<clipPath id="clip0_152_6760">
<rect width="52" height="52" fill="white"/>
</clipPath>
</defs>
</svg>
