<svg width="52" height="52" viewBox="0 0 52 52" fill="none" xmlns="http://www.w3.org/2000/svg">
<g id="x-LOCALLY OWNED Circle2 Black">
<g id="&#38;quot;Locally Owned&#38;quot;">
<g id="&#38;quot;Locally&#38;quot;">
<path id="Vector" d="M12.2479 23.0885C12.2162 23.0568 12.2004 23.0209 12.2004 22.9786V18.9C12.2004 18.8535 12.2162 18.8165 12.2479 18.7869C12.2797 18.7573 12.3156 18.7425 12.3579 18.7425H13.1865C13.2319 18.7425 13.27 18.7573 13.2996 18.7869C13.3292 18.8165 13.344 18.8535 13.344 18.9V22.188H15.2454C15.2908 22.188 15.3289 22.2039 15.3584 22.2356C15.388 22.2673 15.4028 22.3054 15.4028 22.3519V22.9797C15.4028 23.0219 15.388 23.0579 15.3584 23.0896C15.3289 23.1213 15.2919 23.1371 15.2454 23.1371H12.3589C12.3166 23.1371 12.2807 23.1213 12.249 23.0896L12.2479 23.0885Z" fill="#EDF7FE"/>
<path id="Vector_2" d="M16.2916 22.7651C15.9524 22.4765 15.7727 22.0516 15.7516 21.4915C15.7473 21.3699 15.7452 21.1902 15.7452 20.9514C15.7452 20.7125 15.7473 20.5265 15.7516 20.405C15.7727 19.8532 15.9555 19.4273 16.3012 19.1282C16.6468 18.8291 17.1076 18.679 17.6847 18.679C18.2617 18.679 18.7247 18.8291 19.0713 19.1282C19.4191 19.4273 19.6008 19.8532 19.6178 20.405C19.6262 20.648 19.6304 20.8298 19.6304 20.9514C19.6304 21.0729 19.6262 21.2484 19.6178 21.4915C19.5966 22.0516 19.4169 22.4765 19.0777 22.7651C18.7384 23.0536 18.2744 23.1984 17.6847 23.1984C17.0949 23.1984 16.6309 23.0536 16.2916 22.7651ZM18.2343 22.0876C18.3706 21.9491 18.4425 21.7388 18.4509 21.4534C18.4594 21.2103 18.4636 21.0391 18.4636 20.9387C18.4636 20.8298 18.4594 20.6586 18.4509 20.424C18.4425 20.1397 18.3695 19.9283 18.2311 19.7898C18.0926 19.6514 17.9108 19.5827 17.6847 19.5827C17.4585 19.5827 17.2777 19.6514 17.1414 19.7898C17.0051 19.9283 16.9311 20.1397 16.9184 20.424C16.9142 20.5413 16.9121 20.7125 16.9121 20.9387C16.9121 21.1649 16.9142 21.3319 16.9184 21.4534C16.9311 21.7377 17.004 21.9491 17.1382 22.0876C17.2725 22.226 17.4542 22.2947 17.6847 22.2947C17.9151 22.2947 18.0979 22.226 18.2343 22.0876Z" fill="#EDF7FE"/>
<path id="Vector_3" d="M20.7572 22.7618C20.4201 22.4712 20.2414 22.0495 20.2203 21.4978C20.2161 21.3847 20.214 21.2008 20.214 20.9461C20.214 20.6913 20.2161 20.4979 20.2203 20.3817C20.2414 19.8374 20.4232 19.4188 20.7667 19.1239C21.1092 18.8291 21.5742 18.6811 22.1597 18.6811C22.5276 18.6811 22.8584 18.7424 23.1511 18.8661C23.4439 18.9897 23.6754 19.1652 23.8445 19.3935C24.0136 19.6217 24.1002 19.8881 24.1045 20.1935V20.2062C24.1045 20.24 24.0907 20.2675 24.0633 20.2908C24.0358 20.314 24.0062 20.3257 23.9724 20.3257H23.1247C23.0698 20.3257 23.0285 20.314 22.9989 20.2908C22.9693 20.2675 22.944 20.2252 22.9239 20.1618C22.8658 19.9483 22.7738 19.7993 22.648 19.7126C22.5223 19.627 22.3574 19.5837 22.1523 19.5837C21.6588 19.5837 21.403 19.8596 21.3871 20.4123C21.3829 20.5254 21.3808 20.6987 21.3808 20.9334C21.3808 21.168 21.3829 21.3456 21.3871 21.4671C21.4041 22.0188 21.6588 22.2957 22.1523 22.2957C22.3574 22.2957 22.5244 22.2503 22.6544 22.1605C22.7844 22.0706 22.8742 21.9226 22.9239 21.7176C22.9408 21.6553 22.9641 21.6119 22.9926 21.5887C23.0222 21.5654 23.0655 21.5538 23.1247 21.5538H23.9724C24.0104 21.5538 24.0421 21.5665 24.0696 21.5918C24.0971 21.6172 24.1087 21.6479 24.1045 21.6859C24.1002 21.9913 24.0136 22.2577 23.8445 22.486C23.6754 22.7143 23.4439 22.8897 23.1511 23.0134C22.8584 23.137 22.5276 23.1983 22.1597 23.1983C21.5615 23.1983 21.0944 23.0535 20.7572 22.7618Z" fill="#EDF7FE"/>
<path id="Vector_4" d="M24.3654 23.0944C24.3379 23.0669 24.3242 23.0373 24.3242 23.0035C24.3242 22.9781 24.3263 22.9591 24.3305 22.9475L25.8049 18.9185C25.8176 18.8678 25.8451 18.8266 25.8863 18.7927C25.9286 18.7589 25.9825 18.7431 26.0491 18.7431H26.9781C27.0447 18.7431 27.0997 18.76 27.1409 18.7927C27.1832 18.8266 27.2096 18.8678 27.2223 18.9185L28.6903 22.9475L28.703 23.0035C28.703 23.0373 28.6893 23.0669 28.6618 23.0944C28.6343 23.1219 28.6026 23.1356 28.5645 23.1356H27.793C27.6926 23.1356 27.626 23.0912 27.5922 23.0035L27.347 22.363H25.6718L25.4329 23.0035C25.3991 23.0912 25.3304 23.1356 25.2258 23.1356H24.4542C24.4204 23.1356 24.3908 23.1219 24.3633 23.0944H24.3654ZM27.0986 21.4593L26.5152 19.8021L25.9318 21.4593H27.0986Z" fill="#EDF7FE"/>
<path id="Vector_5" d="M29.2474 23.0885C29.2157 23.0568 29.1998 23.0209 29.1998 22.9786V18.9C29.1998 18.8535 29.2157 18.8165 29.2474 18.7869C29.2791 18.7573 29.315 18.7425 29.3573 18.7425H30.1859C30.2314 18.7425 30.2694 18.7573 30.299 18.7869C30.3286 18.8165 30.3434 18.8535 30.3434 18.9V22.188H32.2448C32.2902 22.188 32.3283 22.2039 32.3579 22.2356C32.3875 22.2673 32.4023 22.3054 32.4023 22.3519V22.9797C32.4023 23.0219 32.3875 23.0579 32.3579 23.0896C32.3283 23.1213 32.2913 23.1371 32.2448 23.1371H29.3583C29.3161 23.1371 29.2801 23.1213 29.2484 23.0896L29.2474 23.0885Z" fill="#EDF7FE"/>
<path id="Vector_6" d="M32.994 23.0885C32.9623 23.0568 32.9465 23.0209 32.9465 22.9786V18.9C32.9465 18.8535 32.9623 18.8165 32.994 18.7869C33.0257 18.7573 33.0617 18.7425 33.104 18.7425H33.9326C33.978 18.7425 34.0161 18.7573 34.0457 18.7869C34.0753 18.8165 34.0901 18.8535 34.0901 18.9V22.188H35.9914C36.0369 22.188 36.0749 22.2039 36.1045 22.2356C36.1341 22.2673 36.1489 22.3054 36.1489 22.3519V22.9797C36.1489 23.0219 36.1341 23.0579 36.1045 23.0896C36.0749 23.1213 36.0379 23.1371 35.9914 23.1371H33.105C33.0627 23.1371 33.0268 23.1213 32.9951 23.0896L32.994 23.0885Z" fill="#EDF7FE"/>
<path id="Vector_7" d="M37.243 23.0885C37.2113 23.0568 37.1954 23.0209 37.1954 22.9786V21.6289L35.74 18.9433C35.7273 18.9053 35.721 18.8831 35.721 18.8746C35.721 18.8408 35.7347 18.8112 35.7622 18.7837C35.7897 18.7562 35.8214 18.7425 35.8595 18.7425H36.6437C36.7272 18.7425 36.8001 18.7869 36.8635 18.8746L37.7608 20.4938L38.6645 18.8746C38.7142 18.7869 38.7882 18.7425 38.8843 18.7425H39.6686C39.7066 18.7425 39.7373 18.7562 39.7626 18.7837C39.788 18.8112 39.8007 18.8408 39.8007 18.8746C39.8007 18.8957 39.7965 18.919 39.788 18.9433L38.3326 21.6289V22.9786C38.3326 23.0251 38.3168 23.0621 38.2851 23.0917C38.2534 23.1213 38.2153 23.1361 38.1688 23.1361H37.3529C37.3106 23.1361 37.2747 23.1202 37.243 23.0885Z" fill="#EDF7FE"/>
</g>
<g id="&#38;quot;Owned&#38;quot;">
<path id="Vector_8" d="M15.26 28.7101C14.9207 28.4216 14.7411 27.9967 14.7199 27.4365C14.7157 27.315 14.7136 27.1353 14.7136 26.8965C14.7136 26.6576 14.7157 26.4716 14.7199 26.35C14.7411 25.7983 14.9239 25.3724 15.2695 25.0733C15.6151 24.7742 16.0759 24.6241 16.653 24.6241C17.2301 24.6241 17.693 24.7742 18.0397 25.0733C18.3874 25.3724 18.5692 25.7983 18.5861 26.35C18.5946 26.5931 18.5988 26.7749 18.5988 26.8965C18.5988 27.018 18.5946 27.1934 18.5861 27.4365C18.565 27.9967 18.3853 28.4216 18.046 28.7101C17.7068 28.9987 17.2428 29.1435 16.653 29.1435C16.0633 29.1435 15.5993 28.9987 15.26 28.7101ZM17.2026 28.0326C17.339 27.8942 17.4108 27.6839 17.4193 27.3985C17.4277 27.1554 17.432 26.9842 17.432 26.8838C17.432 26.7749 17.4277 26.6037 17.4193 26.3691C17.4108 26.0847 17.3379 25.8734 17.1994 25.7349C17.061 25.5964 16.8792 25.5277 16.653 25.5277C16.4268 25.5277 16.2461 25.5964 16.1098 25.7349C15.9734 25.8734 15.8994 26.0847 15.8868 26.3691C15.8825 26.4864 15.8804 26.6576 15.8804 26.8838C15.8804 27.1099 15.8825 27.2769 15.8868 27.3985C15.8994 27.6828 15.9724 27.8942 16.1066 28.0326C16.2408 28.1711 16.4226 28.2398 16.653 28.2398C16.8834 28.2398 17.0663 28.1711 17.2026 28.0326Z" fill="#EDF7FE"/>
<path id="Vector_9" d="M19.8091 29.0205C19.7668 28.9803 19.7425 28.9317 19.734 28.8725L19.0502 24.8626C19.046 24.8499 19.0439 24.8351 19.0439 24.8182C19.0439 24.7844 19.0576 24.7548 19.0851 24.7273C19.1126 24.6998 19.1422 24.6861 19.176 24.6861H19.9539C20.0712 24.6861 20.1357 24.7326 20.1484 24.8246L20.5563 27.2724L21.0076 25.8286C21.0541 25.7155 21.1228 25.6595 21.2148 25.6595H21.6661C21.7707 25.6595 21.8394 25.7155 21.8732 25.8286L22.3245 27.2724L22.7325 24.8246C22.7452 24.7326 22.8097 24.6861 22.927 24.6861H23.7049C23.7429 24.6861 23.7746 24.6998 23.8021 24.7273C23.8296 24.7548 23.8433 24.7844 23.8433 24.8182L23.837 24.8626L23.1532 28.8725C23.1447 28.9317 23.1183 28.9803 23.075 29.0205C23.0306 29.0607 22.9756 29.0797 22.909 29.0797H22.3129C22.2463 29.0797 22.1935 29.0628 22.1565 29.03C22.1184 28.9962 22.092 28.9592 22.0751 28.9169L21.441 27.1223L20.8068 28.9169C20.7688 29.0258 20.6916 29.0797 20.5743 29.0797H19.9782C19.9074 29.0797 19.8503 29.0596 19.8091 29.0205Z" fill="#EDF7FE"/>
<path id="Vector_10" d="M24.5377 29.0335C24.506 29.0018 24.4902 28.9659 24.4902 28.9236V24.845C24.4902 24.7985 24.506 24.7615 24.5377 24.7319C24.5694 24.7023 24.6054 24.6875 24.6476 24.6875H25.3124C25.4171 24.6875 25.4879 24.7277 25.5259 24.8069L27.0574 27.2167V24.845C27.0574 24.7985 27.0733 24.7615 27.105 24.7319C27.1367 24.7023 27.1726 24.6875 27.2149 24.6875H27.9685C28.0139 24.6875 28.052 24.7023 28.0816 24.7319C28.1112 24.7615 28.1259 24.7985 28.1259 24.845V28.9173C28.1259 28.9638 28.1112 29.0018 28.0816 29.0335C28.052 29.0652 28.015 29.0811 27.9685 29.0811H27.2973C27.2054 29.0811 27.1367 29.0409 27.0902 28.9617L25.5587 26.6396V28.9236C25.5587 28.9659 25.5439 29.0018 25.5143 29.0335C25.4847 29.0652 25.4477 29.0811 25.4012 29.0811H24.6476C24.6054 29.0811 24.5694 29.0652 24.5377 29.0335Z" fill="#EDF7FE"/>
<path id="Vector_11" d="M29.0497 29.0335C29.018 29.0018 29.0022 28.9659 29.0022 28.9236V24.845C29.0022 24.7985 29.018 24.7615 29.0497 24.7319C29.0815 24.7023 29.1174 24.6875 29.1597 24.6875H32.0905C32.137 24.6875 32.174 24.7023 32.2036 24.7319C32.2332 24.7615 32.248 24.7985 32.248 24.845V25.4347C32.248 25.477 32.2332 25.513 32.2036 25.5447C32.174 25.5764 32.137 25.5922 32.0905 25.5922H30.0887V26.4399H31.952C31.9975 26.4399 32.0355 26.4557 32.0651 26.4874C32.0947 26.5191 32.1095 26.5572 32.1095 26.6037V27.1501C32.1095 27.1924 32.0947 27.2283 32.0651 27.26C32.0355 27.2917 31.9985 27.3076 31.952 27.3076H30.0887V28.1795H32.1412C32.1877 28.1795 32.2247 28.1943 32.2543 28.2239C32.2839 28.2535 32.2987 28.2905 32.2987 28.337V28.9268C32.2987 28.9691 32.2839 29.005 32.2543 29.0367C32.2247 29.0684 32.1877 29.0843 32.1412 29.0843H29.1607C29.1185 29.0843 29.0825 29.0684 29.0508 29.0367L29.0497 29.0335Z" fill="#EDF7FE"/>
<path id="Vector_12" d="M33.0597 29.0335C33.028 29.0018 33.0121 28.9659 33.0121 28.9236V24.845C33.0121 24.7985 33.028 24.7615 33.0597 24.7319C33.0914 24.7023 33.1273 24.6875 33.1696 24.6875H34.8015C35.4166 24.6875 35.8933 24.8344 36.2326 25.1272C36.5718 25.4199 36.7494 25.8448 36.7663 26.4008C36.7705 26.5223 36.7726 26.683 36.7726 26.8838C36.7726 27.0846 36.7705 27.2431 36.7663 27.3604C36.7452 27.9417 36.5729 28.374 36.2484 28.6562C35.9239 28.9384 35.4526 29.08 34.8332 29.08H33.1707C33.1284 29.08 33.0925 29.0642 33.0608 29.0325L33.0597 29.0335ZM34.8015 28.1774C35.0774 28.1774 35.2803 28.1119 35.4103 27.9798C35.5403 27.8477 35.609 27.6374 35.6174 27.3488C35.6259 27.2273 35.6301 27.0708 35.6301 26.8785C35.6301 26.6861 35.6259 26.5308 35.6174 26.4145C35.609 26.1344 35.535 25.9273 35.3944 25.793C35.2539 25.6588 35.0456 25.5922 34.7698 25.5922H34.142V28.1774H34.8004H34.8015Z" fill="#EDF7FE"/>
</g>
</g>
<g id="Group">
<path id="Vector_13" d="M24.3867 37.1569C24.3138 37.0914 24.2937 37.011 24.3138 36.9148C24.373 36.621 24.4237 36.3262 24.485 36.0323C24.5516 35.711 24.5304 35.3982 24.4205 35.0896C24.3994 35.0304 24.3761 34.9712 24.356 34.912C24.2863 34.7038 24.3899 34.4871 24.5928 34.4142C24.7926 34.3423 25.0113 34.4406 25.0895 34.6425C25.1667 34.8433 25.2386 35.0462 25.3126 35.2481C25.32 35.2682 25.3242 35.2883 25.3295 35.3094C25.3358 35.3094 25.3411 35.3083 25.3474 35.3073L25.3739 35.2439C25.6571 34.5569 25.9404 33.8688 26.2236 33.1818C26.3092 32.9757 26.5196 32.8722 26.7161 32.9377C26.9339 33.0106 27.0427 33.2442 26.955 33.4598C26.8134 33.8086 26.6686 34.1552 26.5259 34.503C26.5164 34.5252 26.5079 34.5474 26.4984 34.5696C26.5724 34.4956 26.6538 34.4385 26.7595 34.4205C26.8683 34.4026 26.9677 34.4269 27.0554 34.4903C27.2192 34.6076 27.2467 34.7714 27.1442 35.0642C27.2203 34.9712 27.3027 34.9131 27.4084 34.8961C27.5141 34.8792 27.6113 34.8993 27.6991 34.9617C27.8005 35.0346 27.8682 35.135 27.8608 35.2587C27.8534 35.3707 27.8132 35.4806 27.7773 35.5916C27.7921 35.5757 27.8069 35.5588 27.8227 35.543C27.9496 35.4183 28.1514 35.3929 28.2973 35.4838C28.459 35.5842 28.534 35.7755 28.4674 35.9467C28.1662 36.7193 27.7974 37.4549 27.3048 38.1261C27.2467 38.2053 27.1801 38.2624 27.0765 38.2635C26.1792 37.8936 25.283 37.5247 24.3856 37.1548L24.3867 37.1569Z" fill="#EDF7FE"/>
<path id="Vector_14" d="M22.5962 32.6664C22.6776 32.5501 22.7685 32.4444 22.8943 32.3726C23.1649 32.2172 23.5062 32.2383 23.7588 32.4286C24.004 32.6135 24.1182 32.9348 24.0442 33.2339C23.9417 33.6472 23.5263 33.9104 23.1258 33.8163C22.6871 33.7138 22.4282 33.31 22.5223 32.8778C22.5244 32.8683 22.5223 32.8566 22.5223 32.8471C22.5476 32.7869 22.5719 32.7266 22.5973 32.6664H22.5962Z" fill="#EDF7FE"/>
<path id="Vector_15" d="M27.8893 32.2234C27.7244 32.624 27.2668 32.8132 26.8662 32.6483C26.4688 32.4834 26.2775 32.0195 26.4434 31.6231C26.6094 31.2278 27.0681 31.0386 27.4644 31.2014C27.865 31.3663 28.0552 31.8239 27.8893 32.2245V32.2234Z" fill="#EDF7FE"/>
<path id="Vector_16" d="M27.9928 32.9925C28.1577 32.5941 28.6174 32.4049 29.017 32.5719C29.4165 32.7378 29.6035 33.1965 29.4366 33.5971C29.2717 33.9913 28.8109 34.1816 28.4156 34.0177C28.0182 33.8529 27.8269 33.392 27.9918 32.9925H27.9928Z" fill="#EDF7FE"/>
<path id="Vector_17" d="M24.2597 31.457C24.4256 31.0564 24.8812 30.8672 25.2828 31.0332C25.6823 31.198 25.8726 31.6599 25.7056 32.0573C25.5386 32.4536 25.082 32.6428 24.6856 32.4811C24.2872 32.3184 24.0959 31.8565 24.2608 31.458L24.2597 31.457Z" fill="#EDF7FE"/>
</g>
<g id="&#38;lt;Stars&#38;gt;">
<path id="Vector_18" d="M26.0915 15.5633L26.546 14.6416L27.5627 14.4937L26.8271 13.776L27.0005 12.7635L26.0915 13.2412L25.1815 12.7635L25.3549 13.776L24.6192 14.4937L25.636 14.6416L26.0915 15.5633Z" fill="#EDF7FE"/>
<path id="Vector_19" d="M30.113 12.5299L30.5157 13.3448L31.4162 13.4758L30.7641 14.1111L30.9184 15.0073L30.113 14.5835L29.3087 15.0073L29.462 14.1111L28.8109 13.4758L29.7104 13.3448L30.113 12.5299Z" fill="#EDF7FE"/>
<path id="Vector_20" d="M33.7202 11.7582L34.0468 12.4198L34.7771 12.5255L34.2486 13.0402L34.3734 13.7685L33.7202 13.425L33.067 13.7685L33.1917 13.0402L32.6633 12.5255L33.3936 12.4198L33.7202 11.7582Z" fill="#EDF7FE"/>
<path id="Vector_21" d="M21.978 12.5299L21.5753 13.3448L20.6759 13.4758L21.3269 14.1111L21.1726 15.0073L21.978 14.5835L22.7834 15.0073L22.629 14.1111L23.2801 13.4758L22.3807 13.3448L21.978 12.5299Z" fill="#EDF7FE"/>
<path id="Vector_22" d="M18.2809 11.7582L17.9543 12.4198L17.2239 12.5255L17.7524 13.0402L17.6277 13.7684L18.2809 13.4249L18.934 13.7684L18.8093 13.0402L19.3367 12.5255L18.6074 12.4198L18.2809 11.7582Z" fill="#EDF7FE"/>
</g>
<g id="Circle Frame">
<path id="Vector_23" d="M9.5529 25.3903C9.51379 25.0721 9.22631 24.847 8.90818 24.8861C8.59216 24.9242 8.36598 25.2138 8.40509 25.5308C8.44419 25.8469 8.73167 26.0741 9.04769 26.035C9.36582 25.9959 9.59094 25.7073 9.5529 25.3903ZM9.10054 20.4133C8.78452 20.3689 8.4907 20.5887 8.44736 20.9058C8.40297 21.2207 8.62175 21.5135 8.93883 21.559C9.25484 21.6033 9.54655 21.3835 9.592 21.0675C9.63639 20.7515 9.41761 20.4576 9.10054 20.4133ZM9.89534 22.8473C9.59623 22.8473 9.35314 23.0904 9.35314 23.3906C9.35314 23.6908 9.59623 23.9328 9.89534 23.9328C10.1944 23.9328 10.4386 23.6897 10.4386 23.3906C10.4386 23.0915 10.1955 22.8473 9.89534 22.8473ZM10.632 29.5788C10.5126 29.2839 10.1754 29.1402 9.87948 29.2586C9.58249 29.378 9.43981 29.7162 9.55924 30.0111C9.67867 30.3081 10.0158 30.4508 10.3118 30.3314C10.6066 30.2119 10.7504 29.8758 10.632 29.5788ZM10.446 16.1402C10.1522 16.0154 9.8129 16.1528 9.68818 16.4467C9.56241 16.7394 9.69981 17.0797 9.99363 17.2045C10.2875 17.3302 10.6267 17.1928 10.7514 16.899C10.8772 16.6052 10.7398 16.2659 10.446 16.1402ZM10.5844 18.6968C10.2948 18.6197 9.99786 18.792 9.9207 19.0805C9.84355 19.3701 10.0158 19.6671 10.3044 19.7463C10.594 19.8235 10.891 19.6512 10.9702 19.3627C11.0474 19.072 10.8751 18.775 10.5855 18.6968H10.5844ZM10.9702 27.4132C10.8931 27.1236 10.595 26.9524 10.3065 27.0295C10.0158 27.1067 9.8446 27.4048 9.92282 27.6954C9.99997 27.985 10.298 28.1562 10.5866 28.0791C10.8772 28.0019 11.0484 27.7039 10.9702 27.4132ZM12.5249 31.1663C12.3738 30.9063 12.043 30.8175 11.783 30.9666C11.523 31.1166 11.4342 31.4485 11.5832 31.7096C11.7323 31.9685 12.0652 32.0573 12.3252 31.9083C12.5852 31.7571 12.674 31.4263 12.5249 31.1663ZM12.3252 14.8655C12.0662 14.7144 11.7333 14.8042 11.5832 15.0642C11.4342 15.3232 11.5219 15.6561 11.783 15.8051C12.0419 15.9562 12.3738 15.8664 12.5249 15.6075C12.674 15.3485 12.5862 15.0156 12.3252 14.8655ZM12.7564 33.3446C12.564 33.0888 12.2015 33.0381 11.9468 33.2305C11.691 33.4228 11.6403 33.7854 11.8327 34.0401C12.025 34.2958 12.3875 34.3466 12.6423 34.1542C12.898 33.9619 12.9488 33.5993 12.7564 33.3446ZM12.8536 12.3596C12.6021 12.163 12.2396 12.2074 12.0419 12.4589C11.8453 12.7094 11.8887 13.073 12.1402 13.2706C12.3918 13.4672 12.7553 13.4239 12.9519 13.1723C13.1485 12.9208 13.1052 12.5572 12.8536 12.3596ZM14.9971 34.3878C14.7857 34.1775 14.4411 34.1775 14.2297 34.3878C14.0184 34.6013 14.0184 34.9448 14.2297 35.1562C14.4411 35.3676 14.7857 35.3676 14.9971 35.1562C15.2084 34.9448 15.2084 34.6002 14.9971 34.3878ZM14.9971 11.6176C14.7857 11.4041 14.4411 11.4041 14.2297 11.6176C14.0184 11.829 14.0184 12.1735 14.2297 12.3849C14.4411 12.5963 14.7857 12.5963 14.9971 12.3849C15.2084 12.1735 15.2084 11.829 14.9971 11.6176ZM15.7845 36.4329C15.534 36.2363 15.1704 36.2807 14.9728 36.5323C14.7762 36.7838 14.8206 37.1463 15.071 37.344C15.3226 37.5406 15.6862 37.4972 15.8838 37.2457C16.0804 36.9941 16.036 36.6316 15.7845 36.4329ZM16.1554 9.33467C15.9631 9.0789 15.6006 9.02817 15.3458 9.22053C15.0901 9.41289 15.0393 9.77541 15.2317 10.0291C15.4241 10.2848 15.7866 10.3356 16.0413 10.1432C16.2971 9.95086 16.3478 9.58833 16.1554 9.33467ZM18.2185 36.862C17.9596 36.7119 17.6267 36.8007 17.4766 37.0597C17.3254 37.3197 17.4153 37.6515 17.6742 37.8027C17.9342 37.9528 18.2661 37.864 18.4162 37.6029C18.5673 37.344 18.4775 37.0111 18.2185 36.862ZM18.4162 9.17191C18.2672 8.91191 17.9353 8.82313 17.6742 8.97215C17.4153 9.12223 17.3254 9.45411 17.4766 9.71411C17.6256 9.97411 17.9585 10.0629 18.2185 9.91386C18.4775 9.76273 18.5673 9.43191 18.4162 9.17297V9.17191ZM19.5069 38.6376C19.2131 38.5129 18.8738 38.6503 18.7491 38.9431C18.6233 39.2369 18.7607 39.5772 19.0546 39.702C19.3484 39.8267 19.6877 39.6903 19.8134 39.3965C19.9381 39.1027 19.8007 38.7624 19.5069 38.6376ZM20.1273 7.26523C20.0079 6.96824 19.6697 6.82661 19.3748 6.94499C19.0778 7.06442 18.9351 7.40158 19.0546 7.69751C19.174 7.99451 19.5112 8.13719 19.806 8.01776C20.103 7.89833 20.2457 7.56223 20.1273 7.26523ZM21.9706 38.421C21.6799 38.3438 21.3819 38.5161 21.3047 38.8046C21.2276 39.0953 21.3999 39.3912 21.6884 39.4705C21.979 39.5477 22.2771 39.3754 22.3543 39.0868C22.4314 38.7962 22.2591 38.5002 21.9706 38.421ZM22.3543 7.69223C22.2771 7.40263 21.979 7.23141 21.6905 7.30963C21.3999 7.38678 21.2286 7.68483 21.3068 7.97337C21.384 8.26402 21.6821 8.43524 21.9706 8.35703C22.2612 8.27987 22.4325 7.98182 22.3543 7.69117V7.69223ZM23.6754 39.7981C23.3594 39.7537 23.0656 39.9736 23.0212 40.2907C22.9778 40.6056 23.1966 40.8984 23.5137 40.9438C23.8286 40.9882 24.1214 40.7684 24.1669 40.4524C24.2113 40.1364 23.9925 39.8425 23.6754 39.7981ZM24.5008 6.29604C24.4617 5.97791 24.1732 5.75279 23.8561 5.79084C23.538 5.82994 23.3129 6.11848 23.3509 6.43556C23.39 6.75157 23.6786 6.97881 23.9956 6.93865C24.3117 6.89954 24.5389 6.61206 24.5008 6.29604ZM25.9985 38.9516C25.6983 38.9516 25.4552 39.1957 25.4552 39.4959C25.4552 39.796 25.6983 40.0381 25.9985 40.0381C26.2987 40.0381 26.5418 39.795 26.5418 39.4959C26.5418 39.1968 26.2976 38.9516 25.9985 38.9516ZM25.9985 6.74312C25.6983 6.74312 25.4552 6.98727 25.4552 7.28637C25.4552 7.58548 25.6983 7.82963 25.9985 7.82963C26.2987 7.82963 26.5418 7.58654 26.5418 7.28637C26.5418 6.98621 26.2976 6.74312 25.9985 6.74312ZM28.645 40.3414C28.6059 40.0233 28.3184 39.7981 28.0003 39.8372C27.6843 39.8764 27.4581 40.1638 27.4972 40.482C27.5363 40.798 27.8238 41.0242 28.1419 40.9851C28.4579 40.9459 28.6841 40.6585 28.645 40.3425V40.3414ZM28.4833 5.83734C28.1673 5.79295 27.8735 6.01279 27.8301 6.32986C27.7857 6.64483 28.0045 6.93759 28.3216 6.98304C28.6376 7.02743 28.9293 6.80759 28.9748 6.49157C29.0192 6.17556 28.8004 5.88173 28.4833 5.83734ZM30.6901 38.8015C30.613 38.5119 30.3149 38.3407 30.0243 38.4178C29.7347 38.495 29.5635 38.7941 29.6406 39.0837C29.7188 39.3733 30.0169 39.5445 30.3065 39.4673C30.5961 39.3902 30.7673 39.0921 30.6901 38.8015ZM30.3075 7.31174C30.0169 7.23353 29.7188 7.40475 29.6417 7.69434C29.5645 7.98499 29.7368 8.28304 30.0253 8.3602C30.3149 8.43841 30.6119 8.26719 30.6912 7.97654C30.7684 7.68694 30.5961 7.38995 30.3075 7.3128V7.31174ZM32.9435 39.0784C32.8241 38.7835 32.4869 38.6387 32.191 38.7581C31.894 38.8776 31.7513 39.2147 31.8707 39.5107C31.9901 39.8077 32.3273 39.9503 32.6232 39.8309C32.9181 39.7115 33.0619 39.3743 32.9435 39.0784ZM32.9424 7.07922C32.6486 6.9545 32.3093 7.0919 32.1836 7.38572C32.0588 7.67849 32.1962 8.01882 32.489 8.14353C32.7828 8.2693 33.1232 8.13191 33.2479 7.83808C33.3726 7.54426 33.2363 7.20499 32.9424 7.07922ZM34.5204 37.0639C34.3714 36.8039 34.0385 36.7151 33.7785 36.8641C33.5184 37.0132 33.4297 37.3461 33.5787 37.605C33.7298 37.865 34.0606 37.9538 34.3217 37.8048C34.5806 37.6537 34.6694 37.3228 34.5193 37.0639H34.5204ZM34.3228 8.97427C34.0638 8.82419 33.7319 8.91297 33.5808 9.17402C33.4318 9.43297 33.5195 9.7659 33.7806 9.91492C34.0395 10.065 34.3724 9.97622 34.5225 9.71728C34.6715 9.45728 34.5838 9.12435 34.3228 8.97427ZM36.7674 36.7468C36.5772 36.4911 36.2146 36.4403 35.9589 36.6327C35.7031 36.825 35.6524 37.1876 35.8447 37.4423C36.0371 37.697 36.3996 37.7488 36.6533 37.5564C36.909 37.3641 36.9598 37.0015 36.7674 36.7468ZM36.9281 9.43297C36.6765 9.23638 36.314 9.27971 36.1163 9.53126C35.9198 9.78175 35.9631 10.1453 36.2146 10.343C36.4662 10.5406 36.8298 10.4962 37.0263 10.2447C37.2229 9.99313 37.1796 9.63061 36.9281 9.43297ZM37.7694 34.392C37.558 34.1806 37.2134 34.1806 37.002 34.391C36.7907 34.6045 36.7907 34.948 37.002 35.1593C37.2134 35.3707 37.558 35.3707 37.7694 35.1593C37.9807 34.948 37.9807 34.6034 37.7694 34.392ZM37.7704 11.6197C37.559 11.4083 37.2145 11.4083 37.0031 11.6197C36.7917 11.8311 36.7917 12.1757 37.0031 12.387C37.2145 12.6005 37.559 12.6005 37.7704 12.387C37.9818 12.1757 37.9818 11.8311 37.7704 11.6197ZM39.8578 33.5042C39.6073 33.3076 39.2438 33.352 39.0461 33.6025C38.8495 33.854 38.8939 34.2176 39.1444 34.4153C39.396 34.6119 39.7595 34.5675 39.9572 34.3159C40.1538 34.0654 40.1094 33.7019 39.8578 33.5042ZM40.1696 12.7358C39.9773 12.4801 39.6147 12.4293 39.36 12.6217C39.1042 12.814 39.0535 13.1766 39.2459 13.4313C39.4382 13.6871 39.8008 13.7378 40.0555 13.5454C40.3112 13.3531 40.362 12.9905 40.1696 12.7358ZM40.2161 30.9697C39.9572 30.8207 39.6242 30.9084 39.4742 31.1695C39.3251 31.4284 39.4129 31.7603 39.6718 31.9114C39.9318 32.0605 40.2637 31.9727 40.4148 31.7127C40.5638 31.4527 40.4761 31.1198 40.2151 30.9697H40.2161ZM40.4169 15.0674C40.2679 14.8084 39.936 14.7186 39.675 14.8697C39.416 15.0188 39.3262 15.3517 39.4773 15.6106C39.6264 15.8696 39.9582 15.9594 40.2193 15.8093C40.4782 15.6593 40.5681 15.3274 40.4169 15.0674ZM41.6969 27.0348C41.4062 26.9566 41.1082 27.1278 41.031 27.4185C40.9538 27.7081 41.1261 28.0051 41.4147 28.0843C41.7053 28.1615 42.0034 27.9892 42.0805 27.6996C42.1577 27.41 41.9854 27.113 41.6969 27.0359V27.0348ZM42.0805 19.0815C42.0034 18.792 41.7053 18.6207 41.4147 18.6979C41.1251 18.775 40.9538 19.0731 41.031 19.3637C41.1082 19.6533 41.4062 19.8246 41.6969 19.7474C41.9865 19.6692 42.1577 19.3711 42.0805 19.0815ZM42.0065 29.5757C41.7127 29.4509 41.3734 29.5873 41.2477 29.8811C41.123 30.1749 41.2604 30.5153 41.5542 30.64C41.8469 30.7647 42.1873 30.6273 42.312 30.3345C42.4378 30.0407 42.3004 29.7004 42.0065 29.5757ZM42.4441 16.7658C42.3247 16.471 41.9875 16.3262 41.6916 16.4456C41.3967 16.565 41.253 16.9032 41.3713 17.1981C41.4908 17.4951 41.8279 17.6378 42.1239 17.5184C42.4208 17.3989 42.5635 17.0628 42.4441 16.7658ZM42.1048 22.8484C41.8047 22.8484 41.5616 23.0915 41.5616 23.3916C41.5616 23.6918 41.8047 23.9338 42.1038 23.9338C42.4029 23.9338 42.647 23.6908 42.647 23.3916C42.647 23.0925 42.4039 22.8484 42.1048 22.8484ZM43.0624 25.2222C42.7464 25.1789 42.4526 25.3977 42.4092 25.7147C42.3627 26.0297 42.5836 26.3225 42.9007 26.3679C43.2167 26.4123 43.5084 26.1935 43.5539 25.8765C43.5983 25.5604 43.3795 25.2666 43.0624 25.2222ZM43.5983 21.2482C43.5591 20.9322 43.2717 20.706 42.9556 20.7441C42.6375 20.7842 42.4124 21.0717 42.4504 21.3888C42.4895 21.7069 42.7781 21.932 43.0952 21.8929C43.4112 21.8538 43.6384 21.5653 43.5983 21.2482ZM42.4504 21.3877C42.4895 21.7059 42.7781 21.931 43.0952 21.8919C43.4112 21.8528 43.6384 21.5642 43.5983 21.2472C43.5591 20.9311 43.2717 20.705 42.9556 20.743C42.6375 20.7832 42.4124 21.0707 42.4504 21.3877ZM43.0624 25.2222C42.7464 25.1789 42.4526 25.3977 42.4092 25.7147C42.3627 26.0297 42.5836 26.3225 42.9007 26.3679C43.2167 26.4123 43.5084 26.1935 43.5539 25.8765C43.5983 25.5604 43.3795 25.2666 43.0624 25.2222ZM42.1048 22.8484C41.8047 22.8484 41.5616 23.0915 41.5616 23.3916C41.5616 23.6918 41.8047 23.9338 42.1038 23.9338C42.4029 23.9338 42.647 23.6908 42.647 23.3916C42.647 23.0925 42.4039 22.8484 42.1048 22.8484ZM42.1239 17.5184C42.4208 17.3989 42.5635 17.0628 42.4441 16.7658C42.3247 16.471 41.9875 16.3262 41.6916 16.4456C41.3967 16.565 41.253 16.9032 41.3713 17.1981C41.4908 17.4951 41.8279 17.6378 42.1239 17.5184ZM42.0065 29.5757C41.7127 29.4509 41.3734 29.5873 41.2477 29.8811C41.123 30.1749 41.2604 30.5153 41.5542 30.64C41.8469 30.7647 42.1873 30.6273 42.312 30.3345C42.4378 30.0407 42.3004 29.7004 42.0065 29.5757ZM41.6958 19.7474C41.9854 19.6692 42.1566 19.3711 42.0795 19.0815C42.0023 18.792 41.7043 18.6207 41.4136 18.6979C41.124 18.775 40.9528 19.0731 41.0299 19.3637C41.1071 19.6533 41.4052 19.8246 41.6958 19.7474ZM42.0795 27.6986C42.1566 27.409 41.9843 27.112 41.6958 27.0348C41.4052 26.9566 41.1071 27.1278 41.0299 27.4185C40.9528 27.7081 41.1251 28.0051 41.4136 28.0843C41.7043 28.1615 42.0023 27.9892 42.0795 27.6996V27.6986ZM39.6739 14.8687C39.415 15.0177 39.3251 15.3506 39.4763 15.6096C39.6253 15.8685 39.9572 15.9584 40.2182 15.8083C40.4772 15.6582 40.567 15.3263 40.4159 15.0663C40.2669 14.8074 39.935 14.7175 39.6739 14.8687ZM40.2151 30.9687C39.9561 30.8196 39.6232 30.9074 39.4731 31.1684C39.3241 31.4274 39.4118 31.7592 39.6708 31.9104C39.9308 32.0594 40.2626 31.9717 40.4138 31.7117C40.5628 31.4517 40.4751 31.1188 40.214 30.9687H40.2151ZM40.0544 13.5454C40.3102 13.3531 40.3609 12.9905 40.1686 12.7358C39.9762 12.4801 39.6137 12.4293 39.359 12.6217C39.1032 12.814 39.0525 13.1766 39.2448 13.4313C39.4372 13.6871 39.7997 13.7378 40.0544 13.5454ZM39.8578 33.5032C39.6073 33.3066 39.2438 33.351 39.0461 33.6014C38.8495 33.853 38.8939 34.2166 39.1444 34.4142C39.396 34.6108 39.7595 34.5664 39.9572 34.3149C40.1538 34.0644 40.1094 33.7008 39.8578 33.5032ZM37.0031 11.6187C36.7917 11.8301 36.7917 12.1746 37.0031 12.386C37.2145 12.5995 37.559 12.5995 37.7704 12.386C37.9818 12.1746 37.9818 11.8301 37.7704 11.6187C37.559 11.4073 37.2145 11.4073 37.0031 11.6187ZM37.002 34.3888C36.7907 34.6023 36.7907 34.9458 37.002 35.1572C37.2134 35.3686 37.558 35.3686 37.7694 35.1572C37.9807 34.9458 37.9807 34.6013 37.7694 34.3899C37.558 34.1785 37.2134 34.1785 37.002 34.3888ZM36.2157 10.3409C36.4672 10.5374 36.8308 10.4941 37.0274 10.2426C37.224 9.99102 37.1807 9.6285 36.9291 9.43085C36.6776 9.23427 36.315 9.2776 36.1174 9.52915C35.9208 9.77964 35.9642 10.1432 36.2157 10.3409ZM35.9589 36.6306C35.7031 36.8229 35.6524 37.1854 35.8447 37.4402C36.0371 37.6949 36.3996 37.7467 36.6533 37.5543C36.909 37.3619 36.9598 36.9994 36.7674 36.7447C36.5772 36.4889 36.2146 36.4382 35.9589 36.6306ZM34.3228 8.97215C34.0638 8.82207 33.7319 8.91085 33.5808 9.17191C33.4318 9.43085 33.5195 9.76378 33.7806 9.91281C34.0395 10.0629 34.3724 9.97411 34.5225 9.71516C34.6715 9.45516 34.5838 9.12223 34.3228 8.97215ZM33.7795 36.862C33.5195 37.0111 33.4307 37.344 33.5798 37.6029C33.7309 37.8629 34.0617 37.9517 34.3228 37.8027C34.5817 37.6515 34.6705 37.3207 34.5204 37.0618C34.3714 36.8018 34.0385 36.713 33.7785 36.862H33.7795ZM32.9435 7.0771C32.6497 6.95239 32.3104 7.08979 32.1846 7.38361C32.0599 7.67637 32.1973 8.0167 32.4901 8.14142C32.7839 8.26719 33.1242 8.12979 33.2489 7.83597C33.3737 7.54215 33.2373 7.20288 32.9435 7.0771ZM32.192 38.756C31.895 38.8755 31.7523 39.2126 31.8718 39.5085C31.9912 39.8055 32.3284 39.9482 32.6243 39.8288C32.9192 39.7094 33.0629 39.3722 32.9445 39.0763C32.8251 38.7814 32.488 38.6366 32.192 38.756ZM30.3086 7.30963C30.0179 7.23141 29.7199 7.40263 29.6427 7.69223C29.5656 7.98288 29.7379 8.28093 30.0264 8.35809C30.316 8.4363 30.613 8.26508 30.6923 7.97442C30.7694 7.68483 30.5971 7.38784 30.3086 7.31068V7.30963ZM30.0253 38.4157C29.7357 38.4929 29.5645 38.792 29.6417 39.0816C29.7199 39.3711 30.0179 39.5424 30.3075 39.4652C30.5971 39.3881 30.7684 39.09 30.6912 38.7994C30.614 38.5098 30.316 38.3385 30.0253 38.4157ZM28.4844 5.83523C28.1683 5.79084 27.8745 6.01068 27.8312 6.32775C27.7868 6.64271 28.0056 6.93548 28.3227 6.98093C28.6387 7.02532 28.9304 6.80548 28.9758 6.48946C29.0202 6.17344 28.8014 5.87962 28.4844 5.83523ZM28.0024 39.8351C27.6864 39.8742 27.4602 40.1617 27.4993 40.4799C27.5384 40.7959 27.8259 41.022 28.144 40.9829C28.4601 40.9438 28.6862 40.6564 28.6471 40.3403C28.608 40.0222 28.3205 39.7971 28.0024 39.8362V39.8351ZM25.9996 6.741C25.6994 6.741 25.4563 6.98515 25.4563 7.28426C25.4563 7.58337 25.6994 7.82751 25.9996 7.82751C26.2997 7.82751 26.5428 7.58442 26.5428 7.28426C26.5428 6.9841 26.2987 6.741 25.9996 6.741ZM25.9996 38.9494C25.6994 38.9494 25.4563 39.1936 25.4563 39.4938C25.4563 39.7939 25.6994 40.0359 25.9996 40.0359C26.2997 40.0359 26.5428 39.7929 26.5428 39.4938C26.5428 39.1946 26.2987 38.9494 25.9996 38.9494ZM23.8572 5.78978C23.5391 5.82889 23.3139 6.11742 23.352 6.4345C23.3911 6.75052 23.6796 6.97775 23.9967 6.93759C24.3127 6.89849 24.54 6.611 24.5019 6.29499C24.4628 5.97686 24.1743 5.75173 23.8572 5.78978ZM23.6765 39.7971C23.3604 39.7527 23.0666 39.9725 23.0222 40.2896C22.9789 40.6046 23.1977 40.8973 23.5147 40.9428C23.8297 40.9872 24.1225 40.7673 24.1679 40.4513C24.2123 40.1353 23.9935 39.8415 23.6765 39.7971ZM21.6916 7.30857C21.4009 7.38572 21.2297 7.68377 21.3079 7.97231C21.3851 8.26296 21.6831 8.43418 21.9716 8.35597C22.2623 8.27882 22.4335 7.98077 22.3553 7.69011C22.2782 7.40052 21.9801 7.2293 21.6916 7.30751V7.30857ZM21.9716 38.4199C21.681 38.3428 21.3829 38.515 21.3058 38.8036C21.2286 39.0942 21.4009 39.3902 21.6895 39.4694C21.9801 39.5466 22.2782 39.3743 22.3553 39.0858C22.4325 38.7951 22.2602 38.4992 21.9716 38.4199ZM19.3759 6.94393C19.0789 7.06336 18.9362 7.40052 19.0556 7.69646C19.1751 7.99345 19.5122 8.13613 19.8071 8.0167C20.1041 7.89727 20.2468 7.56117 20.1284 7.26418C20.009 6.96719 19.6707 6.82556 19.3759 6.94393ZM19.508 38.6366C19.2142 38.5119 18.8749 38.6493 18.7502 38.942C18.6244 39.2359 18.7618 39.5762 19.0556 39.7009C19.3494 39.8256 19.6887 39.6893 19.8145 39.3955C19.9392 39.1016 19.8018 38.7613 19.508 38.6366ZM17.6763 8.9711C17.4174 9.12118 17.3276 9.45305 17.4787 9.71305C17.6277 9.97305 17.9607 10.0618 18.2207 9.91281C18.4796 9.76167 18.5694 9.43085 18.4183 9.17191C18.2693 8.91191 17.9374 8.82313 17.6763 8.97215V8.9711ZM18.2196 36.861C17.9607 36.7109 17.6277 36.7997 17.4776 37.0586C17.3265 37.3186 17.4163 37.6505 17.6753 37.8016C17.9353 37.9517 18.2672 37.8629 18.4172 37.6019C18.5684 37.3429 18.4785 37.01 18.2196 36.861ZM15.3458 9.21947C15.0901 9.41183 15.0393 9.77435 15.2317 10.028C15.4241 10.2838 15.7866 10.3345 16.0413 10.1422C16.2971 9.9498 16.3478 9.58728 16.1554 9.33362C15.9631 9.07784 15.6006 9.02711 15.3458 9.21947ZM15.7845 36.4329C15.534 36.2363 15.1704 36.2807 14.9728 36.5323C14.7762 36.7838 14.8206 37.1463 15.071 37.344C15.3226 37.5406 15.6862 37.4972 15.8838 37.2457C16.0804 36.9941 16.036 36.6316 15.7845 36.4329ZM14.9971 12.3849C15.2084 12.1735 15.2084 11.829 14.9971 11.6176C14.7857 11.4041 14.4411 11.4041 14.2297 11.6176C14.0184 11.829 14.0184 12.1735 14.2297 12.3849C14.4411 12.5963 14.7857 12.5963 14.9971 12.3849ZM14.9971 34.3878C14.7857 34.1775 14.4411 34.1775 14.2297 34.3878C14.0184 34.6013 14.0184 34.9448 14.2297 35.1562C14.4411 35.3676 14.7857 35.3676 14.9971 35.1562C15.2084 34.9448 15.2084 34.6002 14.9971 34.3878ZM12.8536 12.3596C12.6021 12.163 12.2396 12.2074 12.0419 12.4589C11.8453 12.7094 11.8887 13.073 12.1402 13.2706C12.3918 13.4672 12.7553 13.4239 12.9519 13.1723C13.1485 12.9208 13.1052 12.5572 12.8536 12.3596ZM11.9468 33.2294C11.691 33.4218 11.6403 33.7843 11.8327 34.039C12.025 34.2948 12.3875 34.3455 12.6423 34.1532C12.898 33.9608 12.9488 33.5983 12.7564 33.3436C12.564 33.0878 12.2015 33.0371 11.9468 33.2294ZM11.784 15.8051C12.043 15.9562 12.3749 15.8664 12.526 15.6075C12.675 15.3485 12.5873 15.0156 12.3262 14.8655C12.0673 14.7144 11.7344 14.8042 11.5843 15.0642C11.4353 15.3232 11.523 15.6561 11.784 15.8051ZM12.3262 31.9072C12.5862 31.7561 12.675 31.4253 12.526 31.1653C12.3749 30.9053 12.044 30.8165 11.784 30.9655C11.524 31.1156 11.4353 31.4475 11.5843 31.7085C11.7333 31.9675 12.0662 32.0562 12.3262 31.9072ZM10.3065 27.0285C10.0158 27.1056 9.8446 27.4037 9.92282 27.6943C9.99997 27.9839 10.298 28.1552 10.5866 28.078C10.8772 28.0009 11.0484 27.7028 10.9702 27.4121C10.8931 27.1226 10.595 26.9513 10.3065 27.0285ZM9.91965 19.0794C9.84249 19.369 10.0148 19.666 10.3033 19.7453C10.5929 19.8224 10.8899 19.6502 10.9692 19.3616C11.0463 19.071 10.874 18.774 10.5844 18.6958C10.2948 18.6186 9.99786 18.7909 9.9207 19.0794H9.91965ZM9.99363 17.2024C10.2875 17.3281 10.6267 17.1907 10.7514 16.8969C10.8772 16.6031 10.7398 16.2638 10.446 16.138C10.1522 16.0133 9.8129 16.1507 9.68818 16.4445C9.56241 16.7373 9.69981 17.0776 9.99363 17.2024ZM9.87948 29.2565C9.58249 29.3759 9.43981 29.7141 9.55924 30.009C9.67867 30.306 10.0158 30.4487 10.3118 30.3292C10.6066 30.2098 10.7504 29.8737 10.632 29.5767C10.5126 29.2818 10.1754 29.1381 9.87948 29.2565ZM9.89534 22.8452C9.59623 22.8452 9.35314 23.0883 9.35314 23.3885C9.35314 23.6886 9.59623 23.9307 9.89534 23.9307C10.1944 23.9307 10.4386 23.6876 10.4386 23.3885C10.4386 23.0894 10.1955 22.8452 9.89534 22.8452ZM8.93883 21.5568C9.25484 21.6012 9.54655 21.3814 9.592 21.0654C9.63639 20.7494 9.41761 20.4555 9.10054 20.4111C8.78452 20.3668 8.4907 20.5866 8.44736 20.9037C8.40297 21.2186 8.62175 21.5114 8.93883 21.5568ZM9.5529 25.3892C9.51379 25.0711 9.22631 24.846 8.90818 24.8851C8.59216 24.9231 8.36598 25.2127 8.40509 25.5298C8.44419 25.8458 8.73167 26.073 9.04769 26.0339C9.36582 25.9948 9.59094 25.7063 9.5529 25.3892ZM42.6449 5.69466C41.5341 4.54791 40.3134 3.51636 38.9996 2.61586C38.7576 2.16773 38.7586 1.54838 37.8222 1.28732C37.3582 1.15944 36.7357 1.02415 36.2749 0.898378C35.5868 0.710247 35.5498 0.331871 35.2032 0C35.1968 0.407969 36.7547 2.71944 37.428 2.90863C38.2291 3.21408 38.8485 3.027 39.0567 3.0492L39.1042 3.06188C40.2954 3.90424 41.4073 4.85864 42.4251 5.90921C46.1274 9.73102 48.5848 14.8391 49.1206 20.5285C47.7023 9.03874 37.8624 0.0930085 26.0006 0.0930085C14.1388 0.0930085 4.09287 9.22687 2.83937 20.8878C3.30335 15.0547 5.78499 9.8124 9.56558 5.90921C10.5813 4.8597 11.691 3.90742 12.8801 3.06717L12.9435 3.0492C13.1517 3.027 13.7721 3.21408 14.5722 2.90863C15.2454 2.71944 16.8023 0.407969 16.797 0C16.4503 0.331871 16.4144 0.710247 15.7253 0.898378C15.2645 1.02415 14.6409 1.15838 14.178 1.28732C13.25 1.54521 13.2426 2.15611 13.0069 2.60424C11.6868 3.50684 10.4608 4.54368 9.34574 5.69466C5.08531 10.0925 2.45042 16.1687 2.45042 22.878C2.45042 29.5873 5.08426 35.6635 9.34574 40.0624C13.6062 44.4612 19.4932 47.1828 25.9953 47.1828C32.4975 47.1828 38.3834 44.4612 42.6449 40.0624C46.9043 35.6635 49.5381 29.5883 49.5381 22.878C49.5381 16.1676 46.9043 10.0925 42.6449 5.69466ZM25.9953 46.8731C19.9794 46.8731 14.4982 44.513 10.3709 40.6394C14.5098 44.3926 19.9963 46.685 25.9996 46.685C32.0028 46.685 37.2029 44.512 41.2995 40.9312C37.2124 44.6293 31.8559 46.8731 25.9943 46.8731H25.9953ZM26.0006 43.5058C14.8903 43.5058 5.88434 34.4988 5.88434 23.3895C5.88434 12.2803 14.8893 3.27327 26.0006 3.27327C37.112 3.27327 46.1169 12.2792 46.1169 23.3895C46.1169 34.4998 37.1098 43.5058 26.0006 43.5058ZM42.4504 21.3856C42.4895 21.7038 42.7781 21.9289 43.0952 21.8898C43.4112 21.8507 43.6384 21.5621 43.5983 21.2451C43.5591 20.929 43.2717 20.7029 42.9556 20.7409C42.6375 20.7811 42.4124 21.0685 42.4504 21.3856ZM42.4092 25.7126C42.3627 26.0276 42.5836 26.3204 42.9007 26.3658C43.2167 26.4102 43.5084 26.1914 43.5539 25.8743C43.5983 25.5583 43.3795 25.2645 43.0624 25.2201C42.7464 25.1768 42.4526 25.3956 42.4092 25.7126ZM42.647 23.3895C42.647 23.0894 42.4039 22.8463 42.1048 22.8463C41.8057 22.8463 41.5616 23.0894 41.5616 23.3895C41.5616 23.6897 41.8047 23.9317 42.1038 23.9317C42.4029 23.9317 42.647 23.6886 42.647 23.3895ZM42.1239 17.5163C42.4208 17.3968 42.5635 17.0607 42.4441 16.7637C42.3247 16.4689 41.9875 16.3241 41.6916 16.4435C41.3967 16.5629 41.253 16.9011 41.3713 17.196C41.4908 17.493 41.8279 17.6357 42.1239 17.5163ZM42.0065 29.5735C41.7127 29.4488 41.3734 29.5852 41.2477 29.879C41.123 30.1728 41.2604 30.5131 41.5542 30.6379C41.8469 30.7626 42.1873 30.6252 42.312 30.3324C42.4378 30.0386 42.3004 29.6983 42.0065 29.5735ZM41.6958 19.7453C41.9854 19.6671 42.1566 19.369 42.0795 19.0794C42.0023 18.7898 41.7043 18.6186 41.4136 18.6958C41.124 18.7729 40.9528 19.071 41.0299 19.3616C41.1071 19.6512 41.4052 19.8224 41.6958 19.7453ZM41.4147 28.0822C41.7053 28.1594 42.0034 27.9871 42.0805 27.6975C42.1577 27.4079 41.9854 27.1109 41.6969 27.0338C41.4062 26.9556 41.1082 27.1268 41.031 27.4174C40.9538 27.707 41.1261 28.004 41.4147 28.0833V28.0822ZM39.675 14.8666C39.416 15.0156 39.3262 15.3485 39.4773 15.6075C39.6264 15.8664 39.9582 15.9562 40.2193 15.8062C40.4782 15.6561 40.5681 15.3242 40.4169 15.0642C40.2679 14.8053 39.936 14.7154 39.675 14.8666ZM40.2161 30.9666C39.9572 30.8175 39.6242 30.9053 39.4742 31.1663C39.3251 31.4253 39.4129 31.7571 39.6718 31.9083C39.9318 32.0573 40.2637 31.9696 40.4148 31.7096C40.5638 31.4496 40.4761 31.1166 40.2151 30.9666H40.2161ZM40.0555 13.5433C40.3112 13.351 40.362 12.9884 40.1696 12.7337C39.9773 12.4779 39.6147 12.4272 39.36 12.6196C39.1042 12.8119 39.0535 13.1744 39.2459 13.4292C39.4382 13.6849 39.8008 13.7357 40.0555 13.5433ZM39.1455 34.4121C39.397 34.6087 39.7606 34.5643 39.9582 34.3127C40.1548 34.0623 40.1104 33.6987 39.8589 33.501C39.6084 33.3045 39.2448 33.3488 39.0472 33.5993C38.8506 33.8509 38.895 34.2145 39.1455 34.4121ZM26.0006 4.3566C15.4896 4.3566 6.96874 12.8785 6.96874 23.3906C6.96874 33.9027 15.4896 42.4214 26.0006 42.4214C36.5116 42.4214 45.0325 33.9016 45.0325 23.3906C45.0325 12.8796 36.5116 4.3566 26.0006 4.3566ZM40.8957 12.4557L40.6199 13.7853L41.9516 14.0623C41.996 14.1373 42.0404 14.2134 42.0826 14.2906L41.57 15.7819L43.0656 16.2955C43.1184 16.4223 43.1691 16.5513 43.2199 16.6792L42.6069 17.8978L43.8265 18.5108C43.8487 18.5933 43.8709 18.6757 43.8921 18.7592L43.0074 20.0719L44.318 20.9544C44.337 21.0918 44.3529 21.2281 44.3677 21.3666L43.4619 22.3833L44.4776 23.2881C44.4776 23.3747 44.4776 23.4635 44.4765 23.5523L43.2875 24.5881L44.3244 25.7782C44.3053 25.9166 44.2874 26.054 44.2662 26.1904L43.129 26.9376L43.8783 28.078C43.8572 28.1604 43.835 28.2439 43.8128 28.3264L42.3913 29.0218L43.0867 30.4444C43.0339 30.5702 42.981 30.696 42.9261 30.8207L41.6292 31.2498L42.0583 32.5456C42.016 32.6206 41.9727 32.6936 41.9283 32.7686L40.3757 33.0709L40.678 34.6203C40.5934 34.7313 40.5068 34.8391 40.4201 34.948L39.062 35.0262L39.1402 36.3832C39.0778 36.4456 39.0155 36.508 38.952 36.5703L37.3794 36.4615L37.2705 38.0331C37.1595 38.1187 37.0475 38.2022 36.9344 38.2857L35.6048 38.0098L35.3289 39.3416C35.2528 39.3849 35.1767 39.4293 35.1007 39.4726L33.6093 38.96L33.0946 40.4545C32.9678 40.5084 32.8399 40.5591 32.712 40.6088L31.4934 39.9968L30.8804 41.2155C30.7979 41.2387 30.7145 41.2599 30.632 41.2831L29.3183 40.3985L28.4357 41.709C28.2983 41.727 28.162 41.7439 28.0246 41.7587L27.0068 40.8529L26.1031 41.8686C26.0144 41.8686 25.9277 41.8686 25.8389 41.8676L24.8031 40.6786L23.612 41.7143C23.4746 41.6964 23.3382 41.6773 23.2008 41.6573L22.4536 40.52L21.3132 41.2694C21.2297 41.2482 21.1473 41.226 21.0638 41.2017L20.3694 39.7802L18.9468 40.4756C18.8199 40.4249 18.6952 40.371 18.5705 40.315L18.1403 39.0181L16.8446 39.4472C16.7695 39.405 16.6966 39.3627 16.6226 39.3194L16.3203 37.7667L14.7698 38.068C14.6599 37.9845 14.55 37.8989 14.4422 37.8111L14.364 36.453L13.008 36.5312C12.9445 36.4689 12.8822 36.4054 12.8198 36.3431L12.9297 34.7704L11.3581 34.6615C11.2725 34.5506 11.1869 34.4385 11.1055 34.3254L11.3814 32.9958L10.0496 32.72C10.0053 32.6439 9.96086 32.5678 9.91753 32.4917L10.4312 30.9993L8.93566 30.4857C8.88281 30.3588 8.83102 30.2309 8.78135 30.102L9.39436 28.8844L8.17468 28.2714C8.15248 28.189 8.13029 28.1055 8.10915 28.022L8.99273 26.7104L7.68321 25.8278C7.66419 25.6904 7.64833 25.5541 7.63354 25.4156L8.53931 24.3989L7.52362 23.4942C7.52362 23.4064 7.52362 23.3187 7.52467 23.231L8.7137 22.1952L7.67687 21.0041C7.69484 20.8667 7.71386 20.7303 7.735 20.5929L8.87224 19.8457L8.12289 18.7042C8.14403 18.6218 8.16622 18.5383 8.18842 18.4559L9.60997 17.7615L8.91452 16.3367C8.96736 16.211 9.02021 16.0852 9.07517 15.9605L10.372 15.5314L9.9429 14.2356C9.98517 14.1605 10.0285 14.0876 10.0729 14.0136L11.6255 13.7103L11.3222 12.1598C11.4067 12.0488 11.4934 11.94 11.579 11.8322L12.9382 11.754L12.86 10.3969L13.0471 10.2098L14.6197 10.3187L14.7297 8.74703C14.8396 8.66142 14.9516 8.57792 15.0647 8.49443L16.3954 8.77134L16.6712 7.43751C16.7473 7.39312 16.8224 7.34873 16.8985 7.30645L18.3908 7.81906L18.9055 6.32352C19.0313 6.27068 19.1581 6.21995 19.2871 6.17027L20.5068 6.78222L21.1198 5.56254C21.2022 5.54035 21.2847 5.51815 21.366 5.49702L22.6798 6.38165L23.5644 5.06896C23.7008 5.04994 23.836 5.03409 23.9734 5.01929L24.9913 5.92824L25.897 4.91148H26.1591L27.196 6.10263L28.3861 5.06579C28.5245 5.08271 28.6619 5.10279 28.7983 5.12392L29.5455 6.26222L30.6859 5.51287C30.7694 5.53401 30.8519 5.5562 30.9343 5.5784L31.6297 6.99995L33.0524 6.3045C33.1781 6.35734 33.3039 6.41019 33.4286 6.46515L33.8588 7.76199L35.1546 7.33288C35.2285 7.37515 35.3025 7.41849 35.3765 7.46076L35.6788 9.01337L37.2293 8.71215C37.3392 8.79671 37.4491 8.88337 37.5569 8.96898L37.6351 10.3271L38.9912 10.25C39.0535 10.3123 39.1169 10.3747 39.1782 10.4381L39.0694 12.0097L40.641 12.1186C40.7266 12.2306 40.8101 12.3416 40.8936 12.4547L40.8957 12.4557ZM37.0042 11.6187C36.7928 11.8301 36.7928 12.1746 37.0042 12.386C37.2155 12.5995 37.5601 12.5995 37.7715 12.386C37.9829 12.1746 37.9829 11.8301 37.7715 11.6187C37.5601 11.4073 37.2155 11.4073 37.0042 11.6187ZM37.0031 34.3888C36.7917 34.6023 36.7917 34.9458 37.0031 35.1572C37.2145 35.3686 37.559 35.3686 37.7704 35.1572C37.9818 34.9458 37.9818 34.6013 37.7704 34.3899C37.559 34.1785 37.2145 34.1785 37.0031 34.3888ZM36.2168 10.3409C36.4683 10.5374 36.8319 10.4941 37.0285 10.2426C37.2251 9.99102 37.1817 9.6285 36.9302 9.43085C36.6786 9.23427 36.3161 9.2776 36.1185 9.52915C35.9219 9.77964 35.9652 10.1432 36.2168 10.3409ZM35.9599 36.6306C35.7041 36.8229 35.6534 37.1854 35.8458 37.4402C36.0381 37.6949 36.4007 37.7467 36.6543 37.5543C36.9101 37.3619 36.9608 36.9994 36.7685 36.7447C36.5782 36.4889 36.2157 36.4382 35.9599 36.6306ZM34.3238 8.97215C34.0649 8.82207 33.733 8.91085 33.5819 9.17191C33.4328 9.43085 33.5206 9.76378 33.7816 9.91281C34.0406 10.0629 34.3735 9.97411 34.5236 9.71516C34.6726 9.45516 34.5849 9.12223 34.3238 8.97215ZM33.7806 36.862C33.5206 37.0111 33.4318 37.344 33.5808 37.6029C33.7319 37.8629 34.0628 37.9517 34.3238 37.8027C34.5828 37.6515 34.6715 37.3207 34.5215 37.0618C34.3724 36.8018 34.0395 36.713 33.7795 36.862H33.7806ZM32.9445 7.0771C32.6507 6.95239 32.3115 7.08979 32.1857 7.38361C32.061 7.67637 32.1984 8.0167 32.4911 8.14142C32.7849 8.26719 33.1253 8.12979 33.25 7.83597C33.3747 7.54215 33.2384 7.20288 32.9445 7.0771ZM32.1931 38.756C31.8961 38.8755 31.7534 39.2126 31.8728 39.5085C31.9923 39.8055 32.3294 39.9482 32.6254 39.8288C32.9202 39.7094 33.064 39.3722 32.9456 39.0763C32.8262 38.7814 32.489 38.6366 32.1931 38.756ZM30.3097 7.30963C30.019 7.23141 29.721 7.40263 29.6438 7.69223C29.5666 7.98288 29.7389 8.28093 30.0275 8.35809C30.3171 8.4363 30.614 8.26508 30.6933 7.97442C30.7705 7.68483 30.5982 7.38784 30.3097 7.31068V7.30963ZM30.0264 38.4157C29.7368 38.4929 29.5656 38.792 29.6427 39.0816C29.721 39.3711 30.019 39.5424 30.3086 39.4652C30.5982 39.3881 30.7694 39.09 30.6923 38.7994C30.6151 38.5098 30.3171 38.3385 30.0264 38.4157ZM28.4854 5.83523C28.1694 5.79084 27.8756 6.01068 27.8322 6.32775C27.7879 6.64271 28.0066 6.93548 28.3237 6.98093C28.6397 7.02532 28.9314 6.80548 28.9769 6.48946C29.0213 6.17344 28.8025 5.87962 28.4854 5.83523ZM28.0035 39.8351C27.6874 39.8742 27.4613 40.1617 27.5004 40.4799C27.5395 40.7959 27.827 41.022 28.1451 40.9829C28.4611 40.9438 28.6873 40.6564 28.6482 40.3403C28.6091 40.0222 28.3216 39.7971 28.0035 39.8362V39.8351ZM26.0006 6.741C25.7004 6.741 25.4574 6.98515 25.4574 7.28426C25.4574 7.58337 25.7004 7.82751 26.0006 7.82751C26.3008 7.82751 26.5439 7.58442 26.5439 7.28426C26.5439 6.9841 26.2997 6.741 26.0006 6.741ZM26.0006 38.9494C25.7004 38.9494 25.4574 39.1936 25.4574 39.4938C25.4574 39.7939 25.7004 40.0359 26.0006 40.0359C26.3008 40.0359 26.5439 39.7929 26.5439 39.4938C26.5439 39.1946 26.2997 38.9494 26.0006 38.9494ZM23.8582 5.78978C23.5401 5.82889 23.315 6.11742 23.353 6.4345C23.3921 6.75052 23.6807 6.97775 23.9978 6.93759C24.3138 6.89849 24.541 6.611 24.503 6.29499C24.4639 5.97686 24.1753 5.75173 23.8582 5.78978ZM23.6775 39.7971C23.3615 39.7527 23.0677 39.9725 23.0233 40.2896C22.9799 40.6046 23.1987 40.8973 23.5158 40.9428C23.8308 40.9872 24.1235 40.7673 24.169 40.4513C24.2134 40.1353 23.9946 39.8415 23.6775 39.7971ZM21.6926 7.30857C21.402 7.38572 21.2308 7.68377 21.309 7.97231C21.3861 8.26296 21.6842 8.43418 21.9727 8.35597C22.2634 8.27882 22.4346 7.98077 22.3564 7.69011C22.2792 7.40052 21.9812 7.2293 21.6926 7.30751V7.30857ZM21.9727 38.4199C21.6821 38.3428 21.384 38.515 21.3068 38.8036C21.2297 39.0942 21.402 39.3902 21.6905 39.4694C21.9812 39.5466 22.2792 39.3743 22.3564 39.0858C22.4335 38.7951 22.2612 38.4992 21.9727 38.4199ZM19.3769 6.94393C19.0799 7.06336 18.9372 7.40052 19.0567 7.69646C19.1761 7.99345 19.5133 8.13613 19.8081 8.0167C20.1051 7.89727 20.2478 7.56117 20.1294 7.26418C20.01 6.96719 19.6718 6.82556 19.3769 6.94393ZM19.509 38.6366C19.2152 38.5119 18.8759 38.6493 18.7512 38.942C18.6255 39.2359 18.7629 39.5762 19.0567 39.7009C19.3505 39.8256 19.6898 39.6893 19.8155 39.3955C19.9403 39.1016 19.8029 38.7613 19.509 38.6366ZM17.6774 8.9711C17.4185 9.12118 17.3286 9.45305 17.4798 9.71305C17.6288 9.97305 17.9617 10.0618 18.2217 9.91281C18.4807 9.76167 18.5705 9.43085 18.4194 9.17191C18.2703 8.91191 17.9385 8.82313 17.6774 8.97215V8.9711ZM18.2207 36.861C17.9617 36.7109 17.6288 36.7997 17.4787 37.0586C17.3276 37.3186 17.4174 37.6505 17.6763 37.8016C17.9363 37.9517 18.2682 37.8629 18.4183 37.6019C18.5694 37.3429 18.4796 37.01 18.2207 36.861ZM15.3469 9.21947C15.0911 9.41183 15.0404 9.77435 15.2328 10.028C15.4251 10.2838 15.7876 10.3345 16.0424 10.1422C16.2981 9.9498 16.3489 9.58728 16.1565 9.33362C15.9641 9.07784 15.6016 9.02711 15.3469 9.21947ZM15.7855 36.4329C15.535 36.2363 15.1715 36.2807 14.9738 36.5323C14.7772 36.7838 14.8216 37.1463 15.0721 37.344C15.3237 37.5406 15.6872 37.4972 15.8849 37.2457C16.0815 36.9941 16.0371 36.6316 15.7855 36.4329ZM14.9981 12.3849C15.2095 12.1735 15.2095 11.829 14.9981 11.6176C14.7867 11.4041 14.4422 11.4041 14.2308 11.6176C14.0194 11.829 14.0194 12.1735 14.2308 12.3849C14.4422 12.5963 14.7867 12.5963 14.9981 12.3849ZM14.9981 34.3878C14.7867 34.1775 14.4422 34.1775 14.2308 34.3878C14.0194 34.6013 14.0194 34.9448 14.2308 35.1562C14.4422 35.3676 14.7867 35.3676 14.9981 35.1562C15.2095 34.9448 15.2095 34.6002 14.9981 34.3878ZM12.8547 12.3596C12.6032 12.163 12.2406 12.2074 12.043 12.4589C11.8464 12.7094 11.8897 13.073 12.1413 13.2706C12.3928 13.4672 12.7564 13.4239 12.953 13.1723C13.1496 12.9208 13.1062 12.5572 12.8547 12.3596ZM11.9479 33.2294C11.6921 33.4218 11.6414 33.7843 11.8337 34.039C12.0261 34.2948 12.3886 34.3455 12.6433 34.1532C12.8991 33.9608 12.9498 33.5983 12.7575 33.3436C12.5651 33.0878 12.2026 33.0371 11.9479 33.2294ZM11.7851 15.8051C12.044 15.9562 12.3759 15.8664 12.5271 15.6075C12.6761 15.3485 12.5884 15.0156 12.3273 14.8655C12.0684 14.7144 11.7354 14.8042 11.5853 15.0642C11.4363 15.3232 11.524 15.6561 11.7851 15.8051ZM12.3273 31.9072C12.5873 31.7561 12.6761 31.4253 12.5271 31.1653C12.3759 30.9053 12.0451 30.8165 11.7851 30.9655C11.5251 31.1156 11.4363 31.4475 11.5853 31.7085C11.7344 31.9675 12.0673 32.0562 12.3273 31.9072ZM10.3075 27.0285C10.0169 27.1056 9.84566 27.4037 9.92387 27.6943C10.001 27.9839 10.2991 28.1552 10.5876 28.078C10.8783 28.0009 11.0495 27.7028 10.9713 27.4121C10.8941 27.1226 10.5961 26.9513 10.3075 27.0285ZM9.9207 19.0794C9.84355 19.369 10.0158 19.666 10.3044 19.7453C10.594 19.8224 10.891 19.6502 10.9702 19.3616C11.0474 19.071 10.8751 18.774 10.5855 18.6958C10.2959 18.6186 9.99891 18.7909 9.92176 19.0794H9.9207ZM9.99469 17.2024C10.2885 17.3281 10.6278 17.1907 10.7525 16.8969C10.8783 16.6031 10.7409 16.2638 10.447 16.138C10.1532 16.0133 9.81395 16.1507 9.68924 16.4445C9.56346 16.7373 9.70086 17.0776 9.99469 17.2024ZM9.88054 29.2565C9.58355 29.3759 9.44086 29.7141 9.56029 30.009C9.67973 30.306 10.0169 30.4487 10.3128 30.3292C10.6077 30.2098 10.7514 29.8737 10.6331 29.5767C10.5136 29.2818 10.1765 29.1381 9.88054 29.2565ZM9.3542 23.3885C9.3542 23.6876 9.59729 23.9307 9.89639 23.9307C10.1955 23.9307 10.4396 23.6876 10.4396 23.3885C10.4396 23.0894 10.1966 22.8452 9.89639 22.8452C9.59623 22.8452 9.3542 23.0883 9.3542 23.3885ZM9.592 21.0654C9.63639 20.7494 9.41761 20.4555 9.10054 20.4111C8.78452 20.3668 8.4907 20.5866 8.44736 20.9037C8.40297 21.2186 8.62175 21.5114 8.93883 21.5568C9.25484 21.6012 9.54655 21.3814 9.592 21.0654ZM9.5529 25.3882C9.51379 25.07 9.22631 24.8449 8.90818 24.884C8.59216 24.9221 8.36598 25.2117 8.40509 25.5287C8.44419 25.8447 8.73167 26.072 9.04769 26.0329C9.36582 25.9938 9.59094 25.7052 9.5529 25.3882Z" fill="#EDF7FE"/>
<path id="Vector_24" d="M39.3748 44.1929C37.6435 44.4296 36.7187 45.3724 36.3224 45.5362L35.3331 45.7645L35.4578 45.9928C37.4448 45.5848 37.4966 48.1267 40.2562 47.4809C41.2106 47.2579 42.4599 46.8891 43.4069 46.6629C44.8221 46.3247 45.2597 46.9673 46.2046 47.2209C45.8167 46.4864 40.7667 43.8758 39.3758 44.1939L39.3748 44.1929Z" fill="#EDF7FE"/>
<path id="Vector_25" d="M43.9533 40.6976C42.2887 41.2292 41.5404 42.3178 41.1779 42.5482L40.2425 42.9435L40.4042 43.1464C42.2908 42.4024 42.7801 44.8967 45.3876 43.7859C46.2891 43.4012 47.4559 42.823 48.3501 42.4372C49.686 41.8602 50.2272 42.4172 51.2027 42.5049C50.6943 41.8485 45.2692 40.1459 43.9533 40.6986V40.6976Z" fill="#EDF7FE"/>
<path id="Vector_26" d="M29.407 49.8935C28.9219 49.8935 28.5266 50.2888 28.5266 50.7739C28.5266 51.2591 28.9219 51.6543 29.407 51.6543C29.8921 51.6543 30.2874 51.2591 30.2874 50.7739C30.2874 50.2888 29.8921 49.8935 29.407 49.8935Z" fill="#EDF7FE"/>
<path id="Vector_27" d="M33.7805 46.5571C32.0345 46.48 30.9564 47.242 30.5368 47.3329L29.5233 47.3805L29.6046 47.6267C31.6329 47.5813 31.2291 50.0915 34.0595 49.9498C35.0382 49.9002 36.334 49.7617 37.3053 49.7089C38.7586 49.6296 39.0735 50.3398 39.9582 50.7584C39.7088 49.9668 35.2063 46.4937 33.7805 46.5582V46.5571Z" fill="#EDF7FE"/>
<path id="Vector_28" d="M11.5958 43.1461L11.7575 42.9432L10.8221 42.5479C10.4596 42.3175 9.71131 41.2299 8.04667 40.6972C6.73081 40.1445 1.30566 41.8461 0.797287 42.5035C1.77176 42.4168 2.3129 41.8588 3.6499 42.4359C4.543 42.8216 5.71089 43.4008 6.61244 43.7845C9.21879 44.8964 9.70814 42.402 11.5958 43.1451V43.1461Z" fill="#EDF7FE"/>
<path id="Vector_29" d="M26.0692 48.916C25.2195 48.916 24.5272 49.6093 24.5272 50.458C24.5272 51.3067 25.2195 52.0001 26.0692 52.0001C26.919 52.0001 27.6113 51.3078 27.6113 50.458C27.6113 49.6083 26.9179 48.916 26.0692 48.916Z" fill="#EDF7FE"/>
<path id="Vector_30" d="M16.5432 45.9924L16.6679 45.7641L15.6786 45.5358C15.2823 45.372 14.3575 44.4292 12.6262 44.1924C11.2353 43.8743 6.18433 46.4859 5.7975 47.2194C6.74238 46.9658 7.17994 46.3232 8.59515 46.6614C9.54215 46.8876 10.7914 47.2564 11.7458 47.4795C14.5054 48.1252 14.5572 45.5833 16.5442 45.9913L16.5432 45.9924Z" fill="#EDF7FE"/>
<path id="Vector_31" d="M22.6163 49.8935C22.1311 49.8935 21.7359 50.2888 21.7359 50.7739C21.7359 51.2591 22.1311 51.6543 22.6163 51.6543C23.1014 51.6543 23.4967 51.2591 23.4967 50.7739C23.4967 50.2888 23.1014 49.8935 22.6163 49.8935Z" fill="#EDF7FE"/>
<path id="Vector_32" d="M22.4779 47.3805L21.4643 47.3329C21.0447 47.2431 19.9667 46.481 18.2207 46.5571C16.7949 46.4926 12.2935 49.9657 12.043 50.7573C12.9276 50.3388 13.2426 49.6285 14.6958 49.7078C15.6671 49.7606 16.9629 49.9001 17.9416 49.9488C20.772 50.0904 20.3683 47.5802 22.3965 47.6257L22.4779 47.3794V47.3805Z" fill="#EDF7FE"/>
</g>
</g>
</svg>
