<svg width="52" height="52" viewBox="0 0 52 52" fill="none" xmlns="http://www.w3.org/2000/svg">
<g id="badge-awarded-best-service-provider-blue" clip-path="url(#clip0_152_6739)">
<path id="Vector" d="M50.7666 29.0982C51.3448 28.2048 52 27.1908 52 25.999C52 24.8071 51.3448 23.7952 50.7666 22.8998C50.3797 22.3007 50.0136 21.7339 49.9158 21.241C49.8118 20.7158 49.9366 20.0325 50.0677 19.3107C50.2538 18.279 50.467 17.1101 50.0271 16.0451C49.5758 14.9604 48.5888 14.2792 47.7173 13.6791C47.1214 13.2694 46.5598 12.8814 46.2727 12.453C45.9815 12.0172 45.8359 11.3443 45.682 10.633C45.4594 9.6044 45.2078 8.43752 44.3841 7.61488C43.5614 6.7912 42.3956 6.53952 41.366 6.31696C40.6536 6.16408 39.9807 6.01744 39.546 5.72624C39.1175 5.4392 38.7296 4.8776 38.3198 4.28168C37.7187 3.41016 37.0386 2.4232 35.9528 1.97184C35.5285 1.79608 35.0594 1.7108 34.5186 1.7108C33.9019 1.7108 33.2852 1.82208 32.6893 1.93024C31.953 2.06544 31.2406 2.1788 30.758 2.08208C30.2661 1.98536 29.6982 1.61928 29.0992 1.23136C28.2038 0.65416 27.1908 0 26 0C24.8092 0 23.7973 0.65416 22.9018 1.2324C22.3018 1.62032 21.736 1.9864 21.243 2.08312C20.7605 2.1788 20.0491 2.06544 19.3128 1.93128C18.7169 1.82312 18.1012 1.7108 17.4824 1.7108C16.9426 1.7108 16.4736 1.79712 16.0493 1.97288C14.9635 2.42424 14.2823 3.4112 13.6822 4.28272C13.2725 4.8776 12.8846 5.44024 12.4561 5.72728C12.0203 6.01848 11.3474 6.16408 10.6361 6.318C9.60648 6.54056 8.44064 6.79224 7.618 7.61488C6.79432 8.43856 6.54264 9.60544 6.32008 10.634C6.16616 11.3464 6.02056 12.0193 5.72936 12.454C5.44232 12.8814 4.87968 13.2694 4.2848 13.6802C3.41328 14.2813 2.42528 14.9614 1.97496 16.0462C1.53504 17.1122 1.74616 18.2811 1.9344 19.3118C2.06648 20.0346 2.19024 20.7158 2.08624 21.242C1.98848 21.7339 1.6224 22.3018 1.23448 22.9008C0.657283 23.7952 0.00208282 24.8092 0.00208282 26C0.00208282 27.1908 0.657283 28.2048 1.23448 29.0992C1.6224 29.6993 1.98848 30.265 2.08624 30.758C2.19024 31.2842 2.06544 31.9675 1.9344 32.6893C1.7472 33.7199 1.53504 34.8878 1.97496 35.9528C2.42528 37.0375 3.41328 37.7198 4.2848 38.3198C4.87968 38.7296 5.44232 39.1175 5.72936 39.546C6.02056 39.9818 6.16616 40.6546 6.32008 41.366C6.54264 42.3946 6.79432 43.5604 7.61696 44.3841C8.44064 45.2078 9.60648 45.4594 10.635 45.682C11.3485 45.8359 12.0214 45.9805 12.4561 46.2727C12.8846 46.5598 13.2725 47.1224 13.6822 47.7173C14.2834 48.5888 14.9635 49.5758 16.0493 50.0261C16.4736 50.2018 16.9426 50.2892 17.4824 50.2892C18.1002 50.2892 18.7169 50.1758 19.3128 50.0677C20.0491 49.9335 20.7605 49.8202 21.243 49.9158C21.735 50.0136 22.3028 50.3797 22.9018 50.7676C23.7962 51.3448 24.8092 52 26 52C27.1908 52 28.2038 51.3448 29.0992 50.7676C29.6993 50.3797 30.265 50.0136 30.758 49.9158C31.2416 49.8202 31.953 49.9335 32.6882 50.0677C33.2842 50.1758 33.8998 50.2892 34.5186 50.2892C35.0584 50.2892 35.5274 50.2018 35.9528 50.0261C37.0386 49.5758 37.7198 48.5888 38.3198 47.7173C38.7296 47.1224 39.1175 46.5598 39.545 46.2738C39.9807 45.9805 40.6536 45.8359 41.366 45.682C42.3956 45.4594 43.5604 45.2078 44.3841 44.3841C45.2067 43.5604 45.4584 42.3956 45.682 41.366C45.8349 40.6536 45.9815 39.9807 46.2727 39.546C46.5598 39.1175 47.1214 38.7296 47.7162 38.3198C48.5888 37.7187 49.5758 37.0375 50.0261 35.9528C50.467 34.8868 50.2549 33.7178 50.0677 32.6882C49.9356 31.9654 49.8108 31.2832 49.9158 30.757C50.0136 30.265 50.3797 29.6972 50.7666 29.0982ZM26 48.0948C13.7977 48.0948 3.90624 38.2023 3.90624 26C3.90624 13.7977 13.7977 3.9052 26 3.9052C38.2023 3.9052 48.0948 13.7977 48.0948 25.999C48.0948 38.2002 38.2023 48.0938 26 48.0938V48.0948Z" fill="#EDF7FE"/>
<path id="Vector_2" d="M26.0187 45.7517H25.999C25.661 45.7517 25.3843 45.4761 25.3843 45.1381C25.3843 44.8001 25.6589 44.5234 25.9979 44.5234C26.337 44.5234 26.6209 44.798 26.6209 45.1381C26.6209 45.4782 26.3567 45.7517 26.0187 45.7517ZM18.6961 44.3092C18.6139 44.3092 18.5297 44.2915 18.4496 44.2572L18.6961 43.6946L18.4475 44.2562C18.1418 44.123 17.9899 43.7694 18.1147 43.4606C18.2385 43.1506 18.5817 42.9957 18.8926 43.1132C18.902 43.1163 18.9332 43.1288 18.9426 43.133C19.2535 43.2692 19.395 43.6311 19.2587 43.9421C19.1578 44.173 18.9322 44.3102 18.6961 44.3102V44.3092ZM33.3185 44.3019C33.0751 44.3019 32.8453 44.1563 32.7496 43.9161C32.6238 43.602 32.7766 43.2442 33.0907 43.1184C33.4038 42.9946 33.7657 43.1392 33.8957 43.447C34.0246 43.7559 33.8915 44.1074 33.5847 44.2416C33.5774 44.2447 33.5535 44.2551 33.5473 44.2572C33.4724 44.2874 33.3954 44.3009 33.3185 44.3009V44.3019ZM12.4779 40.1617C12.325 40.1617 12.1722 40.1045 12.0536 39.9859L12.039 39.9714C11.7998 39.7322 11.7998 39.3422 12.039 39.103C12.2782 38.8638 12.6682 38.8638 12.9074 39.103C13.1466 39.3422 13.155 39.7384 12.9147 39.9786C12.793 40.0993 12.635 40.1617 12.4779 40.1617ZM39.5242 40.1534C39.3671 40.1534 39.2101 40.093 39.0894 39.9724C38.8502 39.7332 38.8502 39.3442 39.0894 39.105C39.3297 38.8658 39.7249 38.8575 39.9641 39.0978C40.2043 39.337 40.2126 39.7186 39.9724 39.9578L39.9578 39.9714C39.8372 40.091 39.6812 40.1523 39.5242 40.1523V40.1534ZM8.31688 33.9612C8.08392 33.9612 7.86448 33.8281 7.76464 33.6003C7.76152 33.5941 7.75112 33.5691 7.74904 33.5629C7.6232 33.2488 7.77504 32.891 8.09016 32.7652C8.40528 32.6404 8.762 32.7922 8.88888 33.1074C9.0116 33.4183 8.86808 33.7813 8.5592 33.9113C8.47912 33.9446 8.39592 33.9612 8.31584 33.9612H8.31688ZM43.6758 33.9446C43.602 33.9446 43.524 33.931 43.4512 33.9009C43.1423 33.7771 42.9863 33.435 43.1038 33.124C43.108 33.1136 43.1205 33.0834 43.1246 33.0741C43.2609 32.7631 43.6218 32.6206 43.9327 32.7579C44.2447 32.8942 44.3851 33.255 44.2489 33.566L43.6873 33.3195L44.2478 33.5691C44.147 33.8021 43.9182 33.9456 43.6769 33.9456L43.6758 33.9446ZM6.86088 26.6406C6.52184 26.6406 6.24728 26.3765 6.24728 26.0385V26.0166C6.24728 25.6776 6.52184 25.403 6.86088 25.403C7.19992 25.403 7.47552 25.6776 7.47552 26.0166C7.47552 26.3557 7.19992 26.6406 6.86088 26.6406ZM45.136 26.6323C44.7959 26.6323 44.5214 26.3578 44.5214 26.0177C44.5214 26.0052 44.5214 25.9917 44.5214 25.9782C44.5214 25.9657 44.5214 25.9532 44.5214 25.9397C44.5214 25.5996 44.7959 25.3157 45.136 25.3157C45.4761 25.3157 45.7496 25.5798 45.7496 25.9178V25.9397C45.7496 25.948 45.7496 25.9584 45.7496 25.9678C45.7496 25.9771 45.7496 25.9865 45.7496 25.9958V26.0166C45.7496 26.3567 45.474 26.6313 45.136 26.6313V26.6323ZM8.29608 19.3294C8.21392 19.3294 8.13072 19.3128 8.05064 19.2774C7.73968 19.1412 7.59824 18.7793 7.73448 18.4683L8.29712 18.7148L7.73552 18.4662C7.8676 18.1605 8.22328 18.0097 8.53112 18.1334C8.84104 18.2572 8.996 18.6004 8.87952 18.9114C8.87432 18.9207 8.86288 18.9519 8.85768 18.9613C8.7568 19.1922 8.53216 19.3294 8.29504 19.3294H8.29608ZM43.6644 19.241C43.421 19.241 43.1912 19.0954 43.0955 18.8552C42.9707 18.5432 43.1153 18.1802 43.4231 18.0513C43.733 17.9213 44.0846 18.0554 44.2177 18.3622C44.2208 18.3685 44.2312 18.3934 44.2343 18.3986C44.3602 18.7138 44.2073 19.0715 43.8922 19.1974C43.8173 19.2265 43.7403 19.241 43.6634 19.241H43.6644ZM12.4363 13.104C12.2803 13.104 12.1243 13.0468 12.0058 12.9282C11.7666 12.689 11.7582 12.3074 11.9985 12.0682L12.013 12.0536C12.2533 11.8134 12.6412 11.8134 12.8814 12.0536C13.1206 12.2928 13.1206 12.6818 12.8814 12.921C12.7598 13.0426 12.5975 13.105 12.4363 13.105V13.104ZM39.4982 13.0478C39.3401 13.0478 39.1841 12.9875 39.0634 12.8679C38.8242 12.6287 38.8159 12.2325 39.0562 11.9933C39.2954 11.753 39.676 11.7458 39.9162 11.985L39.9308 11.9995C40.171 12.2387 40.171 12.6287 39.9308 12.8679C39.8102 12.9875 39.6542 13.0478 39.4971 13.0478H39.4982ZM18.6399 8.94088C18.3976 8.94088 18.1667 8.80152 18.0679 8.56752C17.939 8.2576 18.0721 7.90608 18.3799 7.77192C18.3862 7.76984 18.4111 7.75944 18.4174 7.75632C18.7325 7.63256 19.0882 7.78336 19.215 8.09848C19.3409 8.4136 19.188 8.77032 18.8729 8.89616C18.797 8.92632 18.7179 8.94088 18.641 8.94088H18.6399ZM33.2821 8.91072C33.2114 8.91072 33.1396 8.89928 33.0699 8.87224C33.0595 8.86808 33.0294 8.8556 33.02 8.85144C32.708 8.7152 32.5676 8.35328 32.7028 8.04336C32.838 7.7324 33.1999 7.59096 33.5109 7.7272L33.2644 8.28984L33.513 7.72824C33.8198 7.86136 33.9706 8.216 33.8458 8.52384C33.7501 8.76304 33.5234 8.91072 33.28 8.91072H33.2821ZM25.9615 7.47552C25.6225 7.47552 25.3375 7.20096 25.3375 6.86192C25.3375 6.52288 25.6017 6.24832 25.9407 6.24832H25.9615C26.3006 6.24832 26.5751 6.52288 26.5751 6.86192C26.5751 7.20096 26.3006 7.47552 25.9615 7.47552Z" fill="#EDF7FE"/>
<path id="Vector_3" d="M26 47.3265C14.2407 47.3265 4.67372 37.7595 4.67372 26.0002C4.67372 14.2409 14.2407 4.67398 26 4.67398C37.7592 4.67398 47.3262 14.2409 47.3262 26.0002C47.3262 37.7595 37.7592 47.3265 26 47.3265ZM26 5.50494C14.6993 5.50494 5.50572 14.6985 5.50572 25.9992C5.50572 37.2998 14.6993 46.4934 26 46.4934C37.3006 46.4934 46.4942 37.2998 46.4942 25.9992C46.4942 14.6985 37.3006 5.50598 26 5.50598V5.50494Z" fill="#EDF7FE"/>
<g id="Group">
<path id="Vector_4" d="M12.5705 30.8946C12.5705 30.6762 12.4291 30.5576 12.1743 30.5576H11.6636V31.2274H12.1743C12.4291 31.2274 12.5705 31.113 12.5705 30.8946Z" fill="#EDF7FE"/>
<path id="Vector_5" d="M16.0711 35.1222H15.6468V35.9251H16.0711C16.3811 35.9251 16.5131 35.7701 16.5131 35.5236C16.5131 35.2772 16.3811 35.1222 16.0711 35.1222Z" fill="#EDF7FE"/>
<path id="Vector_6" d="M18.9748 35.1399H18.4912V35.9334H18.9748C19.2671 35.9334 19.4033 35.7826 19.4033 35.5319C19.4033 35.2948 19.2671 35.1399 18.9748 35.1399Z" fill="#EDF7FE"/>
<path id="Vector_7" d="M22.1988 35.1547C21.6788 35.1547 21.3512 35.5146 21.3512 36.0845C21.3512 36.6544 21.6799 37.0142 22.1988 37.0142C22.7178 37.0142 23.0423 36.645 23.0423 36.0845C23.0423 35.5239 22.7095 35.1547 22.1988 35.1547Z" fill="#EDF7FE"/>
<path id="Vector_8" d="M29.7596 26.0388V27.8994H30.1288C30.7175 27.8994 31.0638 27.5624 31.0638 26.9738C31.0638 26.3851 30.7175 26.0388 30.1288 26.0388H29.7596Z" fill="#EDF7FE"/>
<path id="Vector_9" d="M29.7846 30.9722C29.7846 30.7351 29.6483 30.5802 29.3561 30.5802H28.8725V31.3737H29.3561C29.6483 31.3737 29.7846 31.2229 29.7846 30.9722Z" fill="#EDF7FE"/>
<path id="Vector_10" d="M36.8451 26.973C36.8451 26.3844 36.4988 26.0381 35.9102 26.0381H35.541V27.8986H35.9102C36.4988 27.8986 36.8451 27.5617 36.8451 26.973Z" fill="#EDF7FE"/>
<path id="Vector_11" d="M24.0417 26.2342L23.6496 27.4062H24.4379L24.0417 26.2342Z" fill="#EDF7FE"/>
<path id="Vector_12" d="M15.884 26.2342L15.4919 27.4062H16.2802L15.884 26.2342Z" fill="#EDF7FE"/>
<path id="Vector_13" d="M27.2698 26.0204H26.7862V26.814H27.2698C27.5621 26.814 27.6983 26.6632 27.6983 26.4125C27.6983 26.1754 27.5621 26.0204 27.2698 26.0204Z" fill="#EDF7FE"/>
<path id="Vector_14" d="M12.2294 31.7975H11.6637V32.5037H12.2377C12.4977 32.5037 12.6485 32.3851 12.6485 32.1574C12.6485 31.9296 12.4894 31.7975 12.2294 31.7975Z" fill="#EDF7FE"/>
<path id="Vector_15" d="M26 7.91058C16.0087 7.91058 7.9113 16.0101 7.9113 25.9993C7.9113 35.9885 16.0098 44.0891 26 44.0891C35.9903 44.0891 44.0887 35.9895 44.0887 25.9993C44.0887 16.0091 35.9903 7.91058 26 7.91058ZM34.762 25.3722H35.9611C36.9824 25.3722 37.6387 26.0201 37.6387 26.9727C37.6387 27.9254 36.9824 28.5733 35.9611 28.5733H34.762V25.3732V25.3722ZM31.8573 26.9727C31.8573 27.9212 31.2011 28.5733 30.1798 28.5733H28.9807V25.3732H30.1798C31.2011 25.3732 31.8573 26.0211 31.8573 26.9738V26.9727ZM23.0911 12.2203H23.4031C23.9304 12.2203 24.4577 12.2203 24.985 12.2203C25.2731 12.2203 25.3115 12.1923 25.3989 11.9239C25.583 11.3582 25.766 10.7924 25.9511 10.2267C25.9626 10.1903 25.9792 10.1549 26.0052 10.0873C26.0479 10.2111 26.0811 10.3036 26.1113 10.3972C26.2798 10.9151 26.4462 11.4331 26.6147 11.952C26.6875 12.1777 26.7457 12.2203 26.9807 12.2203C27.5808 12.2203 28.1819 12.2203 28.782 12.2203H28.9495C28.8881 12.2692 28.8548 12.2973 28.8195 12.3223C28.3379 12.6727 27.8554 13.0232 27.3739 13.3727C27.1596 13.5287 27.144 13.5786 27.2272 13.8365C27.4113 14.4023 27.5943 14.968 27.7784 15.5338C27.7919 15.5764 27.8044 15.6191 27.8252 15.6867C27.7659 15.6471 27.7285 15.6243 27.6931 15.5983C27.2116 15.2478 26.7291 14.8973 26.2475 14.5468C26.026 14.3856 25.9792 14.3856 25.7619 14.5437C25.2835 14.8911 24.8051 15.2384 24.3267 15.5858C24.2871 15.6149 24.2455 15.6419 24.1748 15.6919C24.2549 15.4433 24.3246 15.227 24.3943 15.0117C24.5253 14.6071 24.6584 14.2026 24.7895 13.798C24.8571 13.589 24.8342 13.5214 24.6532 13.3903C24.1311 13.0107 23.608 12.6311 23.0859 12.2515C23.088 12.2411 23.0901 12.2307 23.0922 12.2214L23.0911 12.2203ZM23.3563 18.0142C23.3563 17.9133 23.3823 17.8499 23.4687 17.7885C24.518 17.0511 25.5643 16.3086 26.6115 15.5671C26.6448 15.5431 26.6791 15.5203 26.7218 15.4911L28.6375 16.969V22.0629H23.3574V21.9059C23.3574 20.6079 23.3584 19.3111 23.3553 18.0131L23.3563 18.0142ZM21.684 22.5621H30.316V23.2683H21.684V22.5621ZM28.5189 28.5733H27.6391L26.9735 27.3648H26.7863V28.5733H26.0063V25.3732H27.3146C28.0987 25.3732 28.4908 25.8246 28.4908 26.381C28.4908 26.7824 28.2724 27.161 27.7795 27.3066L28.5179 28.5743L28.5189 28.5733ZM25.6547 28.5733H24.83L24.6387 28.0075H23.4437L23.2523 28.5733H22.4359L23.5945 25.3732H24.4972L25.6547 28.5733ZM18.5141 25.3732L18.9748 27.7028L19.5447 25.3732H20.4017L20.9487 27.7028L21.4136 25.3732H22.2529L21.4188 28.5733H20.4755L19.9649 26.4673L19.4355 28.5733H18.4923L17.6811 25.3732H18.5151H18.5141ZM18.9863 30.5576V29.9326H21.4615V30.5576H20.6139V33.1337H19.8339V30.5576H18.9863ZM15.4357 25.3732H16.3384L17.4959 28.5733H16.6712L16.4799 28.0075H15.2849L15.0935 28.5733H14.2771L15.4347 25.3732H15.4357ZM12.3739 33.1337H10.8826V29.9336H12.323C12.9751 29.9336 13.363 30.2571 13.363 30.7635C13.363 31.1515 13.13 31.4021 12.8201 31.4926C13.1945 31.5706 13.4358 31.8982 13.4358 32.2632C13.4358 32.7915 13.0479 33.1337 12.3739 33.1337ZM13.8882 29.9336H15.8486V30.5587H14.6682V31.2066H15.7123V31.8087H14.6682V32.5107H15.8486V33.1358H13.8882V29.9357V29.9336ZM16.1294 36.5449H15.6458V37.6941H14.8658V34.494H16.1283C16.9125 34.494 17.3046 34.936 17.3046 35.5247C17.3046 36.054 16.9447 36.5459 16.1283 36.5459L16.1294 36.5449ZM16.2646 32.1769H17.0945C17.1174 32.4234 17.2723 32.5419 17.4907 32.5419C17.7091 32.5419 17.8641 32.4275 17.8641 32.2414C17.8641 31.6486 16.2635 31.9679 16.2729 30.8322C16.2729 30.2259 16.77 29.8889 17.4398 29.8889C18.1095 29.8889 18.6067 30.2352 18.6389 30.8467H17.7955C17.7819 30.6419 17.6363 30.5181 17.4263 30.5139C17.2391 30.5098 17.0976 30.6055 17.0976 30.8062C17.0976 31.3626 18.6795 31.1119 18.6795 32.1831C18.6795 32.7208 18.2603 33.168 17.5126 33.168C16.8241 33.168 16.2864 32.8259 16.2635 32.179L16.2646 32.1769ZM19.344 37.6941L18.6784 36.4856H18.4912V37.6941H17.7112V34.494H19.0195C19.8037 34.494 20.1958 34.9454 20.1958 35.5018C20.1958 35.9032 19.9774 36.2818 19.4844 36.4274L20.2228 37.6951H19.343L19.344 37.6941ZM22.1988 37.7263C21.2919 37.7263 20.5525 37.0472 20.5525 36.0852C20.5525 35.1232 21.2909 34.4483 22.1988 34.4483C23.1067 34.4483 23.8358 35.1232 23.8358 36.0852C23.8358 37.0472 23.1067 37.7263 22.1988 37.7263ZM22.7303 32.1769H23.5602C23.5831 32.4234 23.738 32.5419 23.9564 32.5419C24.1748 32.5419 24.3298 32.4275 24.3298 32.2414C24.3298 31.6486 22.7292 31.9679 22.7386 30.8322C22.7386 30.2259 23.2357 29.8889 23.9055 29.8889C24.5752 29.8889 25.0723 30.2352 25.1046 30.8467H24.2611C24.2476 30.6419 24.102 30.5181 23.8919 30.5139C23.7047 30.5098 23.5633 30.6055 23.5633 30.8062C23.5633 31.3626 25.1451 31.1119 25.1451 32.1831C25.1451 32.7208 24.726 33.168 23.9783 33.168C23.2898 33.168 22.7521 32.8259 22.7292 32.179L22.7303 32.1769ZM26.1383 37.6941H25.1628L24.0271 34.494H24.8571L25.6506 36.9099L26.4483 34.494H27.273L26.1373 37.6941H26.1383ZM27.586 30.5587H26.4056V31.2066H27.4498V31.8087H26.4056V32.5107H27.586V33.1358H25.6256V29.9357H27.586V30.5607V30.5587ZM28.3775 37.6941H27.5975V34.494H28.3775V37.6941ZM28.8725 33.1337H28.0925V29.9336H29.4008C30.185 29.9336 30.5771 30.385 30.5771 30.9414C30.5771 31.3428 30.3587 31.7214 29.8657 31.867L30.6041 33.1347H29.7243L29.0587 31.9263H28.8715V33.1347L28.8725 33.1337ZM30.1423 37.6941H28.9432V34.494H30.1423C31.1636 34.494 31.8199 35.1409 31.8199 36.0946C31.8199 37.0483 31.1636 37.6951 30.1423 37.6951V37.6941ZM30.8246 29.9336H31.6545L32.448 32.3495L33.2457 29.9336H34.0704L32.9347 33.1337H31.9592L30.8235 29.9336H30.8246ZM34.2191 35.118H33.0387V35.7659H34.0829V36.3681H33.0387V37.0701H34.2191V37.6951H32.2587V34.4951H34.2191V35.1201V35.118ZM34.2555 25.9983H33.0751V26.6462H34.1193V27.2483H33.0751V27.9503H34.2555V28.5754H32.2951V25.3753H34.2555V26.0003V25.9983ZM34.3949 29.9336H35.1749V33.1337H34.3949V29.9336ZM36.3574 37.6941L35.6918 36.4856H35.5046V37.6941H34.7246V34.494H36.0329C36.8171 34.494 37.2091 34.9454 37.2091 35.5018C37.2091 35.9032 36.9907 36.2818 36.4978 36.4274L37.2362 37.6951H36.3563L36.3574 37.6941ZM37.2081 32.4504C37.5045 32.4504 37.7458 32.3131 37.8779 32.0396H38.7348C38.5528 32.7323 37.9777 33.1566 37.2164 33.1566C36.2731 33.1566 35.6065 32.4868 35.6065 31.529C35.6065 30.5711 36.2721 29.8972 37.2164 29.8972C37.9777 29.8972 38.5518 30.3257 38.7348 31.0183H37.8779C37.7458 30.7448 37.5045 30.6075 37.2081 30.6075C36.7297 30.6075 36.4011 30.9632 36.4011 31.529C36.4011 32.0947 36.7297 32.4504 37.2081 32.4504ZM41.0384 31.2055V31.8077H39.9943V32.5097H41.1747V33.1347H39.2143V29.9347H41.1747V30.5597H39.9943V31.2076H41.0384V31.2055Z" fill="#EDF7FE"/>
<path id="Vector_16" d="M30.0925 35.1583H29.7233V37.0188H30.0925C30.6811 37.0188 31.0274 36.6819 31.0274 36.0932C31.0274 35.5046 30.6811 35.1583 30.0925 35.1583Z" fill="#EDF7FE"/>
<path id="Vector_17" d="M35.9882 35.1399H35.5046V35.9334H35.9882C36.2804 35.9334 36.4167 35.7826 36.4167 35.5319C36.4167 35.2948 36.2804 35.1399 35.9882 35.1399Z" fill="#EDF7FE"/>
</g>
</g>
<defs>
<clipPath id="clip0_152_6739">
<rect width="52" height="52" fill="white"/>
</clipPath>
</defs>
</svg>
