<svg width="48" height="48" viewBox="0 0 48 48" fill="none" xmlns="http://www.w3.org/2000/svg">
<g id="Icons">
<path id="Vector" d="M41.1 44H14.9C12.8 44 11 42.3 11 40.1V15.9C11 13.8 12.7 12 14.9 12H41.1C43.2 12 45 13.7 45 15.9V40.1C45 42.3 43.3 44 41.1 44Z" fill="#50ABF9"/>
<path id="Vector_2" d="M28.6 40.5H10.5C8.3 40.5 6.5 38.7 6.5 36.5V11.5C6.5 9.3 8.3 7.5 10.5 7.5H12.5" stroke="#111111" stroke-width="2" stroke-miterlimit="10" stroke-linecap="round" stroke-linejoin="round"/>
<path id="Vector_3" d="M18.1001 7.5H37.5001C39.7001 7.5 41.5001 9.3 41.5001 11.5V36.5C41.5001 38.7 39.7001 40.5 37.5001 40.5H33.9001" stroke="#111111" stroke-width="2" stroke-miterlimit="10" stroke-linecap="round" stroke-linejoin="round"/>
<path id="Vector_4" d="M6.5 15.5H41.5" stroke="#111111" stroke-width="2" stroke-miterlimit="10"/>
<path id="Vector_5" d="M12.5 22.5H24.5" stroke="#111111" stroke-width="2" stroke-linecap="round"/>
<path id="Vector_6" d="M12.5 31.5H24.5" stroke="#111111" stroke-width="2" stroke-linecap="round"/>
<path id="Vector_7" d="M29.5 22.5L31.5 24.5L35.5 20.5" stroke="#111111" stroke-width="2" stroke-linecap="round" stroke-linejoin="round"/>
<path id="Vector_8" d="M29.5 31L31.5 33L35.5 29" stroke="#111111" stroke-width="2" stroke-linecap="round" stroke-linejoin="round"/>
</g>
</svg>
