<svg width="48" height="48" viewBox="0 0 48 48" fill="none" xmlns="http://www.w3.org/2000/svg">
<g id="Icons">
<path id="Vector" d="M39.177 44H16.823C14.159 44 12 41.841 12 39.177V16.823C12 14.159 14.159 12 16.823 12H39.177C41.841 12 44 14.159 44 16.823V39.177C44 41.841 41.841 44 39.177 44Z" fill="#50ABF9"/>
<path id="Vector_2" d="M21.851 40.5H12.5C9.7 40.5 7.5 38.3 7.5 35.5V12.5C7.5 9.7 9.7 7.5 12.5 7.5H35.5C38.3 7.5 40.5 9.7 40.5 12.5V21.511" stroke="#111111" stroke-width="2" stroke-linecap="round" stroke-linejoin="round"/>
<path id="Vector_3" d="M14.5 5V9.5" stroke="#111111" stroke-width="2" stroke-miterlimit="10" stroke-linecap="round" stroke-linejoin="round"/>
<path id="Vector_4" d="M33.5 5V9.5" stroke="#111111" stroke-width="2" stroke-miterlimit="10" stroke-linecap="round" stroke-linejoin="round"/>
<path id="Vector_5" d="M14.7019 15.5H40.4999" stroke="#111111" stroke-width="2" stroke-linecap="round" stroke-linejoin="round"/>
<circle id="Ellipse 1" cx="36" cy="35" r="9.5" fill="white"/>
<path id="Vector_6" d="M36 25.4999C38.5 25.3999 40.9 26.4999 42.8 28.3999C46.5 32.0999 46.4 38.1999 42.7 41.7999C39 45.4999 32.9 45.3999 29.3 41.6999C25.6 37.9999 25.7 31.8999 29.4 28.2999" stroke="#111111" stroke-width="2" stroke-linecap="round" stroke-linejoin="round"/>
<path id="Vector_7" d="M36 31.7002V38.3002" stroke="#111111" stroke-width="2" stroke-linecap="round" stroke-linejoin="round"/>
<path id="Vector_8" d="M39.2999 35H32.7" stroke="#111111" stroke-width="2" stroke-linecap="round" stroke-linejoin="round"/>
</g>
</svg>
