<svg width="48" height="48" viewBox="0 0 48 48" fill="none" xmlns="http://www.w3.org/2000/svg">
<g id="Icons">
<path id="Vector" d="M28 47C38.4934 47 47 38.4934 47 28C47 17.5066 38.4934 9 28 9C17.5066 9 9 17.5066 9 28C9 38.4934 17.5066 47 28 47Z" fill="#50ABF9"/>
<path id="Vector_2" d="M38.7 35.2998C41.4 31.6998 42.9 27.0998 42.4 22.1998C41.6 13.5998 34.7 6.69981 26.1 5.69981C19.4 4.99981 13.3 7.79981 9.5 12.5998" stroke="#111111" stroke-width="2" stroke-miterlimit="5" stroke-linecap="round" stroke-linejoin="round"/>
<path id="Vector_3" d="M13.5 32.4002H16.6C17.7 33.4002 19.2 34.0002 20.8 34.0002H27.8C29.7 34.0002 31.4 32.6002 31.6 30.6002L31.9 28.2002L32.4 24.4002L32.6 22.8002C32.8 21.3002 31.6 19.9002 30.1 19.9002H24.3C23.8 19.9002 23.5 19.4002 23.7 19.0002C24.2 17.8002 24.5 16.8002 24.8 15.5002C24.9 14.8002 25 14.4002 25 14.0002C25 12.3002 23.5 11.8002 22.7 11.7002C22.4 11.7002 22.1 11.8002 21.9 12.0002C21.2 13.1002 17.4 17.9002 15.7 20.3002C15.1 21.1002 14.2 21.5002 13.3 21.5002H7.5C6.4 21.5002 5.5 22.3002 5.5 23.4002C5.5 24.2002 5.5 25.1002 5.6 25.9002C6.5 34.5002 13.5 41.4002 22.1 42.3002C26.3 42.7002 30.2 41.7002 33.5 39.8002" stroke="#111111" stroke-width="2" stroke-miterlimit="5" stroke-linecap="round" stroke-linejoin="round"/>
</g>
</svg>
